<svg xmlns="http://www.w3.org/2000/svg" width="1130" height="1130" viewBox="0 0 1130 1130"><defs><style>.a{fill:#bfb1aa}.b{fill:#a7779d}.c{fill:#fff}.d{fill:#bc7641}.e{fill:#f9c393}.f{fill:#dc684a}.g{fill:#a06e21}.h{fill:#d67b2c}.i{fill:#c99445}.j{fill:#f9c192}.k{fill:#f8c091}.l{fill:#f8be91}.m{fill:#f8bd90}.n{fill:#f8bc90}.o{fill:#f8bb8f}.p{fill:#f7b98f}.q{fill:#f7b88e}.r{fill:#f7b68e}.s{fill:#f7b58d}.t{fill:#f6b48c}.u{fill:#f6b28c}.v{fill:#f6b18b}.w{fill:#f6af8a}.x{fill:#f5ae8a}.y{fill:#f5ac89}.z{fill:#f5ab89}.aa{fill:#f4a988}.ab{fill:#f4a887}.ac{fill:#f4a787}.ad{fill:#f4a586}</style></defs><title>33_lampion</title><path class="a" d="M788.2 237.4l-11.6-31.2-5.1-39.1L788 114l8.5-17.2 17.2-26 26.3-17 23.7-4.1 30.6 11.8 16.8 16.2 12.8 24 4.7 26.5-2.6 36.1-8 38.6-8.2 17.7-10.1 13.2-8.7 8-18.8 9L839 257l-8.5.2-42.3-19.8z"/><path class="b" d="M785.1 302.9L769 322.3l-14.7 10.5-.3 7.4-18.7-.7-7.6-15.8-11.4 2.2-8-9.6-17.6-24.8-22.8-12.9-48.7-13.5-14.6-16.2-6.2-12.3-91.3 15.2-32.2 16.5-17.2 7.1-52.4 19-7.9 8.1-14.3 23.4-10 37.3-6.5 3.3-1.5 2.7-1.4 17.9-4.2 18.3-14.1 40.9-6 11.8-9 12.9-8.5 30 1.8 12.4 6.7 10.3-4.9 21.9-1.1 29.3-.7 23.8 6.3 19.8 41.7 11.3 11 48.4 15 14.6 19.8 10 13.2 37.6 13.2 69.6 5.8 71.5 15.4 40.2v54.9l-2.5 69 49-.7 3.7-1.6.7-88.3 2.2-58.5 7.4-15-1.3-47.6 1.1-69.9 4.9-86.9h6.2l3.6 20.4 8.5 79.9 2.2 57.2-2.6 47.6 8.4 22 3.7 138.7 15.1 8.8 35.8-2.9L608 955l1.8-36.5 13.4-28.6 6-69.6 4-17.6 2.9-22.8 3.2-29.1-2.1-58.7 11-3.3 8.7-4.3 7.8-5.6 14.6-15.8 2.2-20.4-.4-16.5-3.6-34.8-6.3-55.3-.4-13.2 5.3-10.6-6.7-14.7 9.9-42 6.9-41.5 5.6-4 8 .4 41.8 7.4 22.7 4 15.4-3.3 13.9-8.1 11.6-20.9 7.8-29.3 23.7-32.2-5.4-11.4-46.2-13.8z"/><path class="c" d="M466.9 482l17.2-8.5 16.5 2.9 59.4-2.9 27.4 2.9 5.5 5.1 4.8-1.8-2.2-42.4 3.3-141.1 2.5-60.5-100 30.5-13.2 49-17.9 104.1-3.3 62.7z"/><path class="d" d="M466.5 499.1l17.6 4.8 27.2-1.1 8.3-4.8h35.9l5.6 3.7 17.2-4.5 5.1-1.1 7.2 3 9.6 1.2-.7 12-20.9 7-9.9-4.5-12.9 2-2.1 5-5.8 5.5-25 2.2-13.4-7.7-42.2-1.8-5.8-21.7 5 .8z"/><path class="b" d="M538.3 506.5l6.7 4.7-1.1 6.7-15.8-2 .7-6.2 9.5-3.2z"/><path class="e" d="M349.4 717.1l-21.6-27.2-7.4-13.6 12.9-33.6 2.1-11.1 6.2-6.2 23.9-.7 18.6 22.3-1 29.3 9.4 16.5-2.2 9.2-3.6 8-19 8.9-12.9 2.9-5.4-4.7z"/><path class="c" d="M331.8 619.3l3.6 10.5 14.3-4.4 23.4-1.4 2.9-11.8-20.5-10.1-23.7 17.2z"/><path class="e" d="M513.8 248.9l9.8 8.9 8.5 4.7 21.2 1.1 20.5-14.3 26-14.3 9.9-11.3 19.4-58.7 4-72.5-46.8-26.3-15.8-6.2a59.3 59.3 0 0 0-24.1-1l-16.5 6.9-12.8 19-7.6 19.9h-20.7l-4 8.7-.7 10.3 12.5 21.2-11 33-9.8 31.1 4.4 6.5z"/><path class="f" d="M498.8 288.6l17.6-4.2 21.1-11.9 16.2-2.9 10.6 8.3 20.9 5.8 6.7-23.7-3.8-4-24.5 2.2-8.8 2.9-7.3-4.7-11-.8-5.1 5.8-35.2-8.3-4.5 5.4-.7 19.1.4 10.6h6.3l1.1.4z"/><path class="g" d="M585.7 1052.9l22.3-2.1 30.6 20.5 27.6 12.4 5.9 15.5-3.8 6.9-27.6-1.4-22.9-5-7.7-2.1-17.8-14.1-20.7 2.9-15.7-11.4 6.6-29 23.2 6.9zm-67.3 18.1l-4.5-28.2-14.9 4.3h-30.3l-12.5 6.1-18.6 12.7-29.2 14.4-6.4 14.9 9.8 5.8 28.5-1 19.9-5.6 16.2-7.7 11.2-8.6 9 3.8 15.1-4.6 6.7-6.3z"/><path class="h" d="M390.6 752.9L376 735.1l1-28.3-6.4-23.9-7.3-4.9-8.2 6.7 3.4 27.5.2 10.6-23.7-16.5-30.1 11.1-9 32.7-16.5 36.3 8.5 13.1-3.3 21.6-2.6 41.7-7 30.9 38.6 59 11.9 3.1 14.4-2.3 16-7.2 15.2 8.5 8.2-1.3 2.3-3.9 2.6-22.6 8.2-55.7 1.6-72.6-.3-40.9-3.1-4.9z"/><path class="c" d="M789.5 303l5.4-5.6 30.7 12.6-3.1 11.8-9.6 4.4-15.1-4.4-8.3-18.8z"/><path class="e" d="M798.5 297.4l5.7-14.4-15.7-28.9-.5-3.8 10.3-19.6-4.9-26.5 10.3-1.6 12.8 15.7 1.6 24.2 8.2 14.2 4.7 2.3 29.8-3.9v17.8l-7.2 11.1-16.2 13.1-14.7 13.7-15.2-2.3-9-11.1z"/><path class="i" d="M814.5 185.4l-4.1-13.7.5-38.9 11.8-19.8 13.4-14.2 14.2-6.6 11.8 3.8 11.1 101.2-9.5 12.1-20.4 2.3-14.7-5.4-11.5-15.4-2.6-5.4z"/><path class="e" d="M527.8 163a27.4 27.4 0 1 1 27.4 27.4 27.4 27.4 0 0 1-27.4-27.4"/><path class="j" d="M528.9 163a26.3 26.3 0 1 1 26.3 26.3 26.3 26.3 0 0 1-26.3-26.3"/><path class="k" d="M529.9 163a25.3 25.3 0 1 1 25.3 25.3 25.3 25.3 0 0 1-25.3-25.3"/><path class="l" d="M531 163a24.2 24.2 0 1 1 24.2 24.2A24.2 24.2 0 0 1 531 163"/><path class="m" d="M532 163a23.2 23.2 0 1 1 23.2 23.2A23.2 23.2 0 0 1 532 163"/><path class="n" d="M533 163a22.2 22.2 0 1 1 22.2 22.2A22.2 22.2 0 0 1 533 163"/><path class="o" d="M534.1 163a21.1 21.1 0 1 1 21.1 21.1 21.1 21.1 0 0 1-21.1-21.1"/><path class="p" d="M535.1 163a20.1 20.1 0 1 1 20.1 20.1 20.1 20.1 0 0 1-20.1-20.1"/><path class="q" d="M536.2 163a19 19 0 1 1 19 19 19 19 0 0 1-19-19"/><path class="r" d="M537.2 163a18 18 0 1 1 18 18 18 18 0 0 1-18-18"/><path class="s" d="M538.3 163a16.9 16.9 0 1 1 16.9 16.9 16.9 16.9 0 0 1-16.9-16.9"/><path class="t" d="M539.3 163a15.9 15.9 0 1 1 15.9 15.9 15.9 15.9 0 0 1-15.9-15.9"/><path class="u" d="M540.3 163a14.9 14.9 0 1 1 14.9 14.9 14.9 14.9 0 0 1-14.9-14.9"/><path class="v" d="M541.4 163a13.8 13.8 0 1 1 13.8 13.8 13.8 13.8 0 0 1-13.8-13.8"/><path class="w" d="M542.4 163a12.8 12.8 0 1 1 12.8 12.8 12.8 12.8 0 0 1-12.8-12.8"/><path class="x" d="M543.5 163a11.7 11.7 0 1 1 11.7 11.7 11.7 11.7 0 0 1-11.7-11.7"/><path class="y" d="M544.5 163a10.7 10.7 0 1 1 10.7 10.7 10.7 10.7 0 0 1-10.7-10.7"/><path class="z" d="M545.6 163a9.6 9.6 0 1 1 9.6 9.6 9.6 9.6 0 0 1-9.6-9.6"/><path class="aa" d="M546.6 163a8.6 8.6 0 1 1 8.6 8.6 8.6 8.6 0 0 1-8.6-8.6"/><path class="ab" d="M547.6 163a7.6 7.6 0 1 1 7.6 7.6 7.6 7.6 0 0 1-7.6-7.6"/><path class="ac" d="M548.7 163a6.5 6.5 0 1 1 6.5 6.5 6.5 6.5 0 0 1-6.5-6.5"/><path class="ad" d="M549.7 163a5.5 5.5 0 1 1 5.5 5.5 5.5 5.5 0 0 1-5.5-5.5"/><path class="c" d="M505.7 171v-9.5l24.2 2.1-1.8 8.2-7 12.7-6.9 3.8-6 .7-2.5-3.1V171z"/><path d="M790.1 243.4c-3.7-2.6-5.4-6.3-7-10.2s-3.4-8.5-5.1-12.7-2.3-6.3-3.4-9.4c-.3-.8-.4-1.6-.6-2.5a32.4 32.4 0 0 0-1.2-4.7c-1.6-3.9-1.8-8-2.3-12a101 101 0 0 1-.5-17.9c.1-2.5.2-5 .5-7.4s.8-3.8 1.1-5.7c.8-4.3 1.5-8.7 2.6-13a157.3 157.3 0 0 1 5.8-18.6c1.6-3.9 3.1-7.8 4.6-11.6a4.6 4.6 0 0 0 .4-1.1c.4-3.7 2.4-6.9 3.7-10.2s2.5-4.4 3.8-6.7l6.4-11.1a53.1 53.1 0 0 1 2.7-5.1 70.9 70.9 0 0 1 4.9-5.6l6.3-6.9 5.9-6.9 1-1 11.8-8.3a49.9 49.9 0 0 1 10.3-5.2 44.8 44.8 0 0 1 14.5-3.1c3-.2 6.1-.1 9.1-.4 4.8-.4 9 1.3 13.2 3.1s11.1 5.5 16.7 8.2c2.6 1.2 4.7 3 7 4.5a6.3 6.3 0 0 1 1.4 1.3c2.5 2.8 4.9 5.6 7.3 8.5a46.2 46.2 0 0 1 3.9 5.5 31.6 31.6 0 0 0 3.5 4.3 27.5 27.5 0 0 1 5.7 11.5q1.2 4.8 2.5 9.7c.2.9.8 1.7 1.1 2.6s2 4.6 1.9 6.8.8 6.6.7 9.9.7 5.7 1 8.5a60.8 60.8 0 0 1 .6 12.2c-.5 5.4-1.2 10.7-1.4 16.1-.1 2.9-.5 5.7-.6 8.5a4.9 4.9 0 0 1-.1 1.4c-1.6 5-2 10.2-3 15.3s-1.6 9.8-2.7 14.6a66.5 66.5 0 0 1-4.9 13.8l-3.4 7.1a58.5 58.5 0 0 1-9.5 14.5 16.7 16.7 0 0 1-2.1 1.8c-3.1 2.4-6.1 5-9.4 7.3a89.7 89.7 0 0 1-14.5 8.4l-9.6 4.2c-3.2 1.3-4 2.2-4.1 5.7-.1 1.7 0 3.4 0 5.1s-.1 4.7-.3 7-1.5 3.9-2.7 5.6-1.3 2.1-2 3a47.2 47.2 0 0 1-3.6 4.2c-1.7 1.7-3.6 3.2-5.3 4.9a69.7 69.7 0 0 1-10.8 8.8l-4.7 3-.7.6-3.6 3.6c-1.6 1.6-1.7 2.3-.4 4.2s4.1 5.9 6 8.9a68 68 0 0 1 3.5 6.5c1 2 1.1 3.9-.9 5.6a59.6 59.6 0 0 0-5.4 5 64 64 0 0 0-5.2 6c-2.5 3.4-4.8 6.9-7.2 10.3a69.1 69.1 0 0 0-6.3 12.2 33.5 33.5 0 0 0-2.2 5.1c-1 3.8-1.6 7.7-2.4 11.6a40.7 40.7 0 0 1-4.1 11.6c-1.4 2.4-2.6 4.9-3.8 7.5a46.4 46.4 0 0 1-13.5 16.7c-1.3 1.1-3.2 1.4-4.8 2.1l-4.5 2.4-1.2.6c-2.2.7-4.4 1.5-6.6 2.1s-5.7 1.4-8.9 1-7 .2-10.4.2a32 32 0 0 1-6.7-.5c-4.3-.9-8.6-2.1-12.8-3.2l-3.2-.5-4.1-.9c-2.1-.5-4.2-.8-6.3-1.4a30.7 30.7 0 0 0-6.4-.9 26 26 0 0 1-8.2-1.5c-3.1-1.2-6.3-2.1-9.4-3.3s-4.5.1-6.5 1.1-1 1.5-1.2 2.4c-.6 2.9-1.2 5.8-1.7 8.6a11.7 11.7 0 0 0-.3 2.8 39.3 39.3 0 0 1-.9 9.5c-.5 2.9-.8 5.8-1.3 8.7-.1 1-.4 2-.6 3a71.4 71.4 0 0 1-2 8.6 45.7 45.7 0 0 0-1.9 9.7 96.9 96.9 0 0 1-2.3 10.2c-.5 2.2-1.1 4.5-1.7 6.7a3.7 3.7 0 0 1-.6 1.3 4.9 4.9 0 0 0-1.2 4.1 1.7 1.7 0 0 1-.1.9c-1.4 3.6-.2 6.6 1.8 9.5l.5.8c1.2 2.2 2.5 4.4 3.6 6.8 1.7 3.8 1.2 10.1-3.3 12-1.9.8-2.3 2.5-2.5 4.2a15.2 15.2 0 0 0 .6 6.7 9.1 9.1 0 0 1 .6 4.1 10 10 0 0 0 .9 5.6 16.5 16.5 0 0 1 1.1 7.1 16.6 16.6 0 0 0 .9 4.1 18.3 18.3 0 0 1 .6 2.7c.2 2.5.2 4.9.3 7.4a1.6 1.6 0 0 0 0 .5c1.6 4.3.6 9 1.4 13.4.3 1.9.7 3.8.9 5.7a6.4 6.4 0 0 1-.3 2.3 16.6 16.6 0 0 0-.2 7.4 89 89 0 0 1 1.2 16.7 27 27 0 0 0 .4 3.4c.2 1.4.3 2.9.6 4.3a19.8 19.8 0 0 0 .8 2.4 10 10 0 0 1 .8 2.8c0 2 .5 4-.3 6a3.2 3.2 0 0 0 .1 1.4 11.9 11.9 0 0 1 .3 2.5c-.4 4.9.3 9.7.4 14.6a67.2 67.2 0 0 1-.7 7.6c-.3 2.8-.5 5.6-.8 8.3s-.5 5-2.2 7a6.4 6.4 0 0 1-1.9 1.7 8.9 8.9 0 0 0-4.2 3.9 10.5 10.5 0 0 1-4.1 4 6.4 6.4 0 0 0-2.6 2.9 5.4 5.4 0 0 1-2.7 2.7 15.1 15.1 0 0 0-4.3 3.1 24.9 24.9 0 0 1-10.8 6.6c-2.3.7-4.6 1.4-6.4 3.2a7.5 7.5 0 0 0-1.7 2.4 17.5 17.5 0 0 0-1 8.7 83.3 83.3 0 0 1 .7 10.4c.1 9.6.1 19.2 0 28.7-.1 7.8-.6 15.7-.9 23.5v.2a54.4 54.4 0 0 1-1.7 15 65.3 65.3 0 0 0-.8 7.2c-.2 1.6-.4 3.2-.7 4.8-.8 4.1-1.7 8.2-2.6 12.3-.4 1.9-.9 3.7-1.3 5.6-1.3 6.2-3.6 12.2-3.2 18.7a52.1 52.1 0 0 1-.2 9c-.4 3.4-.7 6.8-.8 10.2a10.3 10.3 0 0 1-.6 3.2c-.9 2.5-.8 5-.8 7.6s-.3 5.7-.5 8.6-.6 7.6-.9 11.3c-.1.9-.2 1.8-.3 2.8s-.8 4.7-1 7a35.6 35.6 0 0 1-4.2 12.7 88.4 88.4 0 0 0-5.2 10.2 98.2 98.2 0 0 0-3.1 11.4c-.6 2.5-1.2 5.1-1.7 7.7a29.8 29.8 0 0 0-.8 5.5c0 3.2-.6 6.4-.2 9.7a94.7 94.7 0 0 1 .3 11v6.3c0 2.1-.1 7.2 0 10.7.3 5.3.8 10.5 1.2 15.8v1.9c.1 7.6 0 15.2.2 22.9 0 2.2.5 4.4.8 6.7s.1 2.5.1 3.7l.3 11.2a3.2 3.2 0 0 0 .2 1.1c1.2 2.7 1 5.5.8 8.3a3.1 3.1 0 0 0 1.5 3.1l10.2 6.5 2.2 1.7 5.9 4.5a5.4 5.4 0 0 0 1.3.5c1.7.6 3.4 1.2 5 1.9l16.7 8.1a83.5 83.5 0 0 1 7.3 4.1 12.8 12.8 0 0 1 3.4 3.1c1.6 2.2 3 4.5 4.4 6.8a3.5 3.5 0 0 1 .6 1.2c.6 4.5 1.2 8.9-1 13.2a5.2 5.2 0 0 1-4.4 3l-7.6.9c-1.4.1-2.8 0-4.2 0h-8.8c-5.5-.7-11.1-1.2-16.6-2.2-8.4-1.5-16.7-3.5-23.9-8.5-2.4-1.7-4.6-3.7-6.9-5.5l-7.3-5.7a2.7 2.7 0 0 0-3.4 0c-1.6.9-3.3 1.7-5 2.5a14.6 14.6 0 0 1-10 .5 78.6 78.6 0 0 1-8.6-2.9 13.8 13.8 0 0 1-2.8-2.1l-6.2-4.5a6.5 6.5 0 0 1-3-6c.2-3.5.5-6.9.7-10.4.1-1.8.1-3.6 0-5.4-.2-4.8.8-9.4 1.3-14.1a92.3 92.3 0 0 0 .7-11.4c-.1-3.7-.9-7.4-1.2-11.1-.2-2-.1-4-.2-6.1-.2-4.7-.2-9.3-.6-14-.3-3.1.3-6.2.1-9.3a94.7 94.7 0 0 1 .1-10.2c.3-3.5.7-7.1 1.1-10.6a8.7 8.7 0 0 0 .1-1.4c-.3-4.6-.2-9.3-1.1-13.8a2.5 2.5 0 0 1-.1-.5c0-3.8-.2-7.6 0-11.4a53.3 53.3 0 0 0-.4-12.7 50.9 50.9 0 0 1-.2-6.5c-.2-4.8-.5-9.6-.7-14.4a4.7 4.7 0 0 1 .1-1.1 16.8 16.8 0 0 0-1.9-12.1c-1.3-2.2-2.3-4.6-3.6-6.8s-1.7-5.6-2.3-8.5 0-8.6.5-13a41.4 41.4 0 0 0 .6-9.2c-.3-3.5-.4-7.1-.5-10.7 0-1.5.4-3.1.4-4.6-.1-11.8.1-23.6 0-35.4 0-2.6.4-5.1.3-7.7-.2-4.2-.6-8.3-.9-12.5v-.7c-.3-6-.7-12.1-.9-18.1-.2-4.2-.3-8.4-.5-12.6a36.4 36.4 0 0 0-.6-4.1c-.2-1.1-.5-2.1-.6-3.2s-.6-4.8-.8-7.2c-.3-4.9-1.7-9.7-2.4-14.6a8.3 8.3 0 0 1-.1-2.3 22.1 22.1 0 0 0-.5-8.7c-.7-3.2-1-6.4-1.9-9.6-1.7-6.5-1.6-13.2-2.5-19.8-.1-.9-.2-1.9-.4-2.8a3.1 3.1 0 0 0-1.9-2.6 2.9 2.9 0 0 0-.8 1 70.5 70.5 0 0 0-1.3 7.5 30.4 30.4 0 0 0 .4 5.3 10.7 10.7 0 0 1 .3 3c-.5 2.3 0 4.6.1 6.9a56 56 0 0 1-.4 6.9c-.4 4.3-.8 8.6-1.4 12.8s.2 6.5 0 9.7a71.2 71.2 0 0 1-.8 9 49.6 49.6 0 0 0-.5 11.6c.1 1.2 0 2.4 0 3.7-.2 6.1-.4 12.3-.6 18.4-.1 3.3-.6 6.6-.7 10s.3 5.7.2 8.6c-.1 5.2-.5 10.5-1.1 15.7-.3 2.3.2 4.7.2 7.1 0 4.9 1.4 9.7 1 14.6-.2 3.1.3 6.3.3 9.5s-.2 4.3-.3 6.5a5.3 5.3 0 0 0 .1 1.6c.9 3.3.7 6.8.8 10.2s.4 5.7.4 8.6a63.7 63.7 0 0 1-.5 7.9 26.4 26.4 0 0 1-3.9 10.8 30.1 30.1 0 0 0-3.6 7.8c-.6 2.1-.1 4.5-.1 6.7v3.2c-.1 4-.4 8.1-.5 12.1s-.3 8-.8 12.1.2 5.7.2 8.6-.2 5-.3 7.4a7.1 7.1 0 0 0-.1 1.2c.5 3.9-.7 7.7-.7 11.5s0 4.9.1 7.3c.3 4.9.7 9.7 1 14.6.2 3.2.3 6.5.4 9.7s-.1 4.7-.3 7c-.4 4.4-1 8.8-1.3 13.2s0 6.5-.1 9.8-.4 3.7-.5 5.5a57.7 57.7 0 0 0 .1 5.8c.5 8.3 2.2 16.4 1.9 24.8-.2 3.8.4 7.6.7 11.3a6.5 6.5 0 0 1-2.9 6c-2.8 2.1-5.6 4.3-8.5 6.2a19.4 19.4 0 0 1-4.5 1.9 29.9 29.9 0 0 1-8.8 2 17.6 17.6 0 0 1-9.3-2.5l-1.8-.9c-1.4 1.4-2.6 2.9-4.1 4.2a83.6 83.6 0 0 1-12.9 9.6 26.8 26.8 0 0 1-8 3.5c-2.7.6-5.3 1.8-8 2.3-5.4 1.1-10.8 2.1-16.2 2.8s-8.7.6-13 .8-8.8.1-13.2 0a15.8 15.8 0 0 1-6.5-1.7 10.3 10.3 0 0 1-5.1-5.8 5.9 5.9 0 0 1 .4-3.8c2-5.2 4.2-10.4 7.7-14.8a12.7 12.7 0 0 1 3.4-3.1q5.6-3.3 11.5-6.2c4.8-2.4 9.8-4.7 14.7-7l.4-.2c4.2-.7 7-3.8 10.2-6.1l2.1-1.4 10-6.4a2.9 2.9 0 0 0 1.3-3c-.2-2.8-.3-5.6.8-8.3a4.6 4.6 0 0 0 .2-1.6c.2-5 .1-10.1.5-15.1a127.8 127.8 0 0 0 .7-13.2c0-5.1 0-10.1.2-15.2s.6-7.1.7-10.7.3-9.1.5-13.7v-.9c.1-6.7-.2-13.4.3-20.1a70.5 70.5 0 0 0-.8-15c-.7-4.9-2.1-9.7-3.2-14.5a6.6 6.6 0 0 1-.4-1.3c0-3.6-1.5-6.8-2.8-10-2.1-5.4-4.4-10.8-6.8-16s-2.8-9.6-3.6-14.6-.6-8.5-1.2-12.7a5.5 5.5 0 0 1-.1-.7c-.2-5.7-.3-11.3-.5-17-.1-1.5-.2-3.1-.4-4.6s-.4-2.3-.5-3.4-.1-5.3-.4-7.9-.8-5.2-1.2-7.8-1-6.3-1.6-9.4-.8-3.6-1.1-5.4l-.3-1.4-1.8-10.8c-.6-3.6-1-6.6-1.5-9.9s-1.4-9.2-2.3-13.7-2-9.5-3-14.3c-.5-2.3-.9-4.6-1.2-6.9a89.7 89.7 0 0 0-3.1-12.6c-1.4-4.6-2.5-9.3-4.1-13.8s-2.7-5.9-4.1-8.8-3.3-6.5-3.8-10.2c-.2-1.6-1.6-2.2-2.8-2.9s-3.3-1.5-4.8-2.4-4.8-3.1-7.2-4.7l-1-.6c-1.1-.4-1.8 0-1.9 1.2a29.4 29.4 0 0 1-3 9.5c-2.3 4.7-5.4 8.7-10.9 10.1a2.2 2.2 0 0 0-1.9 2.3c.2 2.7-1.1 5-2.1 7.3s-.7 5.6.3 8.4a2.8 2.8 0 0 0 1.8 1.5 5.1 5.1 0 0 1 3.3 2.3 20.9 20.9 0 0 1 2.4 4.5 13 13 0 0 0 4.8 6.4l3.4 2.5a4.7 4.7 0 0 1 2.1 3.5c.7 5.8 1.5 11.5 2.1 17.3a40.2 40.2 0 0 1-.2 6 7.3 7.3 0 0 0-.1 1.6c.7 3.9-.1 7.7 0 11.6.1 1.8.4 3.6.4 5.3s-.2 5.1-.1 7.6-.8 6.5-.4 9.9.1 7.6.1 11.4.2 9.5.1 14.2c-.1 7.6-.1 15.2-.7 22.8s-1.7 17.6-2.6 26.4c-.1 1.2 0 2.5-.3 3.7s-1 4.2-1.4 6.3-.2 2.6-.4 3.9c-.6 3.8-1.3 7.6-2 11.5-.2 1.2-.2 2.5-.4 3.7s-1.1 5-1.8 7.5a25 25 0 0 0-.9 7.1 33.3 33.3 0 0 1-.3 4.6c-.4 3.5-.6 6.9-1.6 10.3a10.7 10.7 0 0 0-.2 3.5 5.2 5.2 0 0 1-1.2 3.7 17.6 17.6 0 0 0-1.5 2.1 9.1 9.1 0 0 1-6.3 4.7 12.8 12.8 0 0 1-8.6-1.2l-4.1-2.2a7.1 7.1 0 0 1-2.2-1.7 5.1 5.1 0 0 0-3.5-2c-2.4-.3-4.8-.5-7.2-.6a4.9 4.9 0 0 0-2 .5c-3.4 1.4-6.6 3-10.1 4.3a75.3 75.3 0 0 1-9.4 2.5c-2.2.5-4.3 1.4-6.6 1a50 50 0 0 1-7.3-1.4 8 8 0 0 1-4.5-3.8c-1.7-3.1-3.2-6.2-5-9.2s-2.4-3.2-3.6-4.8l-5.7-7.9c-3-4.1-5.9-8.4-9.2-12.3s-5.5-8.1-7.9-12.3a43.2 43.2 0 0 1-3.2-5.9c-1-2.7-2.3-5.2-3.5-7.8a16.5 16.5 0 0 1-1.1-9.8 46.7 46.7 0 0 1 1.7-6.7c1.1-3.5 2.4-7 3.6-10.6a22.4 22.4 0 0 0 .5-2.2l1.3-5.6c.2-.8.3-1.7.4-2.5s.6-4.1.7-6.2a22 22 0 0 0 .2-4.4c-.5-4.9.5-9.6 1.2-14.3a29.5 29.5 0 0 0 .1-5.6c-.2-4.9-.7-9.8.2-14.6.5-2.7 1-5.5 2.6-7.9s.4-2-.6-2.8l-1.5-1.1c-4.8-4.4-6-9.8-4.3-16.1a60.9 60.9 0 0 1 5.4-12.3 85.7 85.7 0 0 0 6.1-13.3 21.4 21.4 0 0 1 1.9-3.7 19.8 19.8 0 0 0 2.6-7.9c.3-3.3 1-6.6 1.5-9.8.2-1 .1-2 .3-3a43.9 43.9 0 0 1 4.9-13.5l3.1-4.9c2.7-4.1 6.8-6.2 11.4-7.4l10.8-2.8a24.6 24.6 0 0 0 3.1-.8c1.5-.6 1.8-1.4 1.4-3-.7-3.2-2.6-5.8-4.5-8.4s-5.1-7.1-7.7-10.5a5.2 5.2 0 0 1-.9-5.1c.9-2.6 1.9-5.3 3-7.8s2.1-4 3-6.1 2.2-5.8 3.3-8.7c.4-.9.6-1.9 1.1-2.8a21.4 21.4 0 0 0 2.3-7.3 41.1 41.1 0 0 1 1.4-6.1 6.6 6.6 0 0 0-.4-4.7 26.9 26.9 0 0 1-1.6-6c-.3-1.4-.7-2.4-2.2-2.9a3.5 3.5 0 0 1-2.3-3.5c-.2-3.5-.1-7-.2-10.4s-.3-4.8-1.9-7-1.8-4.9-1.8-7.6-.3-6.6-.4-9.9a2.9 2.9 0 0 1 0-.7c1.2-5.8-.1-11.6 0-17.4s.1-9 .4-13.5a83.5 83.5 0 0 1 1.7-11.2 51 51 0 0 1 2.6-7.7 26.8 26.8 0 0 0 1.6-9.1c.1-3.6-1.7-6.3-4.4-8.6a34.2 34.2 0 0 1-4.2-4.4 6.5 6.5 0 0 1-1.1-4.9c.3-2.5.6-4.9 1-7.4a22 22 0 0 1 .4-2.3c.8-3.3 1.7-6.6 2.5-9.9.4-1.5.6-3 .9-4.6a48.2 48.2 0 0 1 6-15.6c1.4-2.2 2.7-4.5 4.2-6.7a25.3 25.3 0 0 1 3.6-4 21.7 21.7 0 0 0 5.8-8.9 110 110 0 0 0 3.7-14.6c.5-2.3 1.3-4.5 1.9-6.7s.7-3.2 1.1-4.8 1-3.7 1.6-5.6c1.2-3.5 2.3-7.1 3.8-10.5s2.8-7 4.1-10.6a62 62 0 0 0 2.2-7.6 20.2 20.2 0 0 0 .3-4.6c0-2.4-.4-4.8-.2-7.2a20.7 20.7 0 0 1 3.9-11.3 35.1 35.1 0 0 1 5.9-6.5 6.3 6.3 0 0 0 2.2-4.4c.5-4.5 1.3-9.1 2.3-13.5a52.1 52.1 0 0 1 2.7-7.4c1.2-3.2 2.5-6.3 3.8-9.5.6-1.5 1.4-2.9 2.2-4.4l3.7-6.7c2.7-4.9 5.5-9.7 9.4-13.8s5-6 7.8-8.6 6.1-5.4 10.3-6.5 10-3 14.9-4.5c2.1-.7 4.2-1.6 6.4-2.2l8.1-2.2 9.2-2.4c4.1-1.1 7.8-3.3 11.6-5.3s6.2-3.1 9.4-4.6a103 103 0 0 0 15.1-8.6 39 39 0 0 0 4.1-3.4c3.2-2.9 7.1-3.9 11.3-4 1.3 0 2.6.5 4-.7l-1.9-2.5-3.3-4.2a14.8 14.8 0 0 0-1.5-1.8c-2.5-2.3-5.2-4.5-7.7-6.8s-4.3-4.4-6.5-6.6a19.4 19.4 0 0 0-3.1-2.7c-2.4-1.5-4.2-3.7-6.1-5.7a18.8 18.8 0 0 1-3.4-4.4c-1.8-3.8-2.9-7.9-1.1-12.1l2.6-6.4c1.8-4.5 3.8-9 5.5-13.6a79.7 79.7 0 0 0 3.8-13.2c.5-3 1.5-5.9 2.2-8.8s1.1-4.5 1.5-6.8a2.7 2.7 0 0 0-1.8-3.3l-3-1.2c-1.2-.5-1.3-1.1-.6-2.1l.6-.7a1.9 1.9 0 0 0 .3-2.9l-.5-.8c-1.7-2.5-1.7-2.6.2-4.8s1.6-2.5 0-4.2-2.8-5.2-3.4-8.2a24.6 24.6 0 0 1 1.2-12.4c2-6 5.6-10.8 11.9-12.7a13.7 13.7 0 0 1 10 1l1.3.6c2.8.8 3.5.4 4.2-2.6s1.4-6 2.3-9a42.7 42.7 0 0 1 2.3-5.3c.8-1.7 1.5-3.4 2.5-5a40.7 40.7 0 0 1 2.6-3.8c1.2-1.6 2.5-3.1 3.6-4.8s3.7-4 5.7-5.8 5.2-4.5 8.5-5.6 8.9-3.7 13.7-4.4a12.6 12.6 0 0 1 4.3.1c1.7.4 2.2 1.4 1.3 2.9a24 24 0 0 1-3.5 4 3 3 0 0 1-1.7.6c-2.4.2-4.8.2-7.2.6a18.4 18.4 0 0 0-9.6 4.3 2.9 2.9 0 0 0-1 3.5c1.1 2.9.6 6 0 9s-3.4 4-6.3 2.2l-1.9-1.4a7 7 0 0 0-1.2 1.3 54 54 0 0 0-3.3 7.2c-1.1 3.2-2.1 6.4-3.3 9.7a5.3 5.3 0 0 1-1.2 1.4l-1.6 1.9a4 4 0 0 0 3.1 2.1 43.9 43.9 0 0 0 9.9 1.4c3.3 0 3.7 1.3 2.1 3.9a5 5 0 0 1-2.4 2 18.3 18.3 0 0 1-10 1.2c-3.3-.7-6.6-1.8-9.9-2.7s-6.1-1.8-9.2-2.3-7.8 2.1-9.2 6.3a13.6 13.6 0 0 0 .2 9.1 12.9 12.9 0 0 0 1.7 3.2c3.5 4.8 8.4 7.5 13.8 9.5a44.9 44.9 0 0 0 7.7 1.6c2 .4 4.1.7 6.2.9a11.5 11.5 0 0 0 3-.3 4.3 4.3 0 0 0 3.4-5.7c-.3-.9-1.1-1.9-.2-2.8s2.3-2.6 4.2-2.6a3 3 0 0 1 2.8 3.9 12.2 12.2 0 0 0-.4 3.6c-.1 1.4-1 2.7-1.6 4s-1 1.2-1.2 2a2 2 0 0 0 0 1.7 1.8 1.8 0 0 0 1.6.4 19.9 19.9 0 0 0 4.5-1.8c2.2-1.4 4.7-1.5 7.1-2.1s1.5.4 1.3 1.5-.1.6-.2.9c-.4 2.6-.1 3 2.5 3.8.9.3 2 .5 2 1.6a3.9 3.9 0 0 1-1 3.2l-2.4 2.5c-1.7 1.7-3.7 2.1-6 1.9s-3.4-.1-5.1-.1h-.9l-10 .2-2.3.2c-1.8.2-2.8-.2-3.6-1.9s-1.5-3.1-2.1-4.7a3 3 0 0 0-2.5-2.1c-1.7-.2-3.4-.4-4.9.9a4 4 0 0 1-2.1.9c-4.7.5-7 3.9-8.3 7.8-2.1 6.3-3.6 12.8-5.4 19.3a36.2 36.2 0 0 1-1.5 4.1c-1.9 4.5-3.3 9.2-4.9 13.8s-3 6.5-4.3 9.8-1.1 10.6 3.5 13.5 7.5 6.7 11.3 10a81.9 81.9 0 0 0 6.9 5.5c4.6 3.3 8.9 7 11.8 11.8 3.9 6.6 9.8 10.6 16.5 13.7 1.1.5 1.7.5 2.5-.6s2.1-2 3.1-3.1a5.4 5.4 0 0 1 3.9-1.7 29.4 29.4 0 0 1 12.3 2 6.4 6.4 0 0 1 3.1 2.3c1.1 1.5 1.7 1.7 3.3.7s3.7-2.5 5.6-3.6l6-3.5 3.6-2.1 6.7-3.7c3.6-2.1 7.7-3.3 10.9-6.2l1-.6c2.2-1.2 4.8-2 6-4.5 3.1-1.7 4.2-4.9 5.7-7.7.6-1.1 1.1-2.2 1.7-3.3s2.2-5.3 2.7-8.1.9-5 1.5-7.5 1.2-3.5 1.7-5.3a8.2 8.2 0 0 0 .4-2.3c0-1.5-.6-2-2-1.3l-4.1 2.3-7.3 4.2c-1.2.7-3.1.6-3.7-.1s-.4-2.3.8-3.5a6.4 6.4 0 0 1 2.6-1.8 21.7 21.7 0 0 0 6.5-3.5c2.2-1.5 4.2-3.2 6.3-4.9a21.4 21.4 0 0 0 5.8-6.6 3.1 3.1 0 0 1 .5-.8c3.5-3.5 5-8 5.7-12.5s1.3-9.1-.5-13.6-7.2-7.3-12.2-6.7-8.5 3.3-11.6 6.8a4.2 4.2 0 0 1-4.5 1.5c-2-.5-3.6-1.3-4.2-3.8a7.1 7.1 0 0 1 1.3-6.1 19.9 19.9 0 0 1 3.7-4.4 8.8 8.8 0 0 0 2-2.5c.9-1.5 1.6-3.2 2.4-4.8s.4-4-.7-5.7c-2.2-3.4-2.1-7.1-1.7-10.8.2-1.7 1.3-3.1 2.4-4.4 2.9-3.6 6.7-5.9 10.4-8.5a12.4 12.4 0 0 1 2.7-1.3c4.1-1.6 4-5.9 2.2-8.5a25.4 25.4 0 0 0-3.2-3.6c-1.5-1.5-3.2-2.7-4.7-4.2-4.7-4.9-10.2-8.8-15.6-12.9a55.1 55.1 0 0 0-8.7-4.9 149.2 149.2 0 0 0-17.1-6.6 5.1 5.1 0 0 1-1.4-.7c-1.6-1.2-1.7-3-.1-4.1s4.6-3.2 7.6-3.1c1.5.1 3.1-.4 4.6-.4a46.8 46.8 0 0 1 18.1 3.8c4.1 1.8 8.3 3.6 12.2 5.7s8.1 4.7 12.1 7 5.1 3 7.5 4.6c5.3 3.6 10 7.8 13.2 13.4a113.6 113.6 0 0 1 8.2 16.9 32.5 32.5 0 0 1 1.5 7.3 59.4 59.4 0 0 1 .6 8.8 30.4 30.4 0 0 1-1.2 7.1 85.4 85.4 0 0 1-3.4 10.6c-1.7 4-2.8 8.2-5.1 12a48.4 48.4 0 0 0-3.1 6.7c-2 4.9-3.8 9.8-5.8 14.7a39.7 39.7 0 0 1-3.5 7.1c-2.2 3.2-3.3 6.9-4.9 10.3a97.5 97.5 0 0 0-4.2 9.6 84.3 84.3 0 0 0-2.3 8.7c-.8 3.4-1.4 6.8-2.3 10.2a23.8 23.8 0 0 1-8.1 12.2c-1.5 1.2-2.2 2.3-1.5 4.3a18.2 18.2 0 0 1 .5 5.3 1.8 1.8 0 0 0 1.4 2.1 6.3 6.3 0 0 1 3.8 3.5c1.4 2.7 3 5.3 4.5 7.9a5.4 5.4 0 0 0 2 1.9c3.2 1.6 6.3 3.3 9.6 4.7 5 2.2 10.1 4.4 15.2 6.3 3.2 1.2 6.5 2.1 9.7 3.1a75.2 75.2 0 0 0 11.7 2.9 34.5 34.5 0 0 1 5.1 1.3c1.5.5 2.8 1.2 4.3 1.8 4.1 1.5 7.4 4.1 10.9 6.6a3.4 3.4 0 0 0 3.1.3 3.7 3.7 0 0 1 4 1.2 60.8 60.8 0 0 0 5.1 5.4c2.4 1.9 4.2 4.6 7.1 5.9s2.6 2.9 2.8 4.8a16.3 16.3 0 0 0 4.5 9.5 4.9 4.9 0 0 1 1 1.5c1.5 4.2 5 6.1 8.6 7.8a4.9 4.9 0 0 0 4.3-.3 8.7 8.7 0 0 1 5.9-.8c3.5.9 5 2.7 4.8 6.3a11.8 11.8 0 0 0 1.8 6.9 5.4 5.4 0 0 0 3.5 2.5l7.5 2.2a13.4 13.4 0 0 0 2.7.4 1.2 1.2 0 0 0 1.3-1.3v-1.9a6.5 6.5 0 0 1 1.5-3.8 19.8 19.8 0 0 1 6.2-5 62 62 0 0 0 15.3-12.5 40.2 40.2 0 0 0 4.8-7.3 26.9 26.9 0 0 1 8.2-8.8l11.8-8.6c2.1-1.6 2.4-3.1 1.5-5.5a79.7 79.7 0 0 0-2.9-7.8c-2.9-5.8-6.4-11.1-11.5-15.3a10.6 10.6 0 0 1-1.7-1.9 3.6 3.6 0 0 1-.6-3.5 36.5 36.5 0 0 1 4.2-9c.4-1.8.9-2.7 1.4-3.7zm-262.7 396h-.7a7.1 7.1 0 0 1-1.1-1.9 18.8 18.8 0 0 1-.5-3.9 74.6 74.6 0 0 0-1.4-15 19.7 19.7 0 0 1 0-6c.4-3.7-1.2-7.4-.5-11.1a.8.8 0 0 0-.1-.5c-1.2-2.3-.2-4.7-.5-7.1a50.9 50.9 0 0 1-.1-6.5c0-2.1-.1-4.2.1-6.2.5-6.7 1.1-13.4 1.6-20.2.1-1.6.1-3.3.2-4.9.2-3.8.5-7.6.8-11.3s-.3-7 .8-10.4-.5-2.9-2.6-2.6-5 0-6.9-2.1-6.6-4.3-10.9-4.1a109.2 109.2 0 0 1-12.1-.3c-3.5-.2-6.9-.7-10.4-1l-10.4-.9a2.3 2.3 0 0 0-2.6 1.8 6.9 6.9 0 0 0-.3 1.8c0 4.4-.2 8.8 0 13.2s.8 7.1 0 10.7a9.4 9.4 0 0 0 .1 2.3c0 .7.1 1.4.1 2.1s-.2 3.6-.2 5.3.2 4.6.3 7c.2 4.8 0 9.7.7 14.4a141.5 141.5 0 0 1 1 16.5 233.7 233.7 0 0 1-.3 27.5 37.5 37.5 0 0 0 .2 5.8c.1 1.7.5 2 2.2 2.3a49.4 49.4 0 0 1 5 1c6.2 1.9 12.4 1.6 18.7.9a7.4 7.4 0 0 1 6.2 1.9 4.5 4.5 0 0 1 .6 5.6c-1.1 2-2.2 2.5-4.6 1.5a20.5 20.5 0 0 0-9.5-1.6 55.5 55.5 0 0 0-6 .5c-3.8.7-7.4-.3-11.1-.8s-2.8.1-3.2 2.3-1.4 6.8-2.2 10.2-1.5 4.9-2.2 7.3-1.4 5.9-2.3 8.7-2.3 6.4-3.6 9.6a21.6 21.6 0 0 1-2 3.9c-2.3 3.4-4.7 6.7-7 10.1a13 13 0 0 1-5.4 4.6l-1.4.8a36.4 36.4 0 0 1-13.7 5c-1.4.2-2.8.1-4.2.2s-1.9.9-1.4 2 1.2 3 2 4.4c2.5 4.9 4.6 10 5.4 15.5a11.1 11.1 0 0 0 .7 2.2 36.9 36.9 0 0 1 1.6 4.3c.9 4 2.2 7.9 2.9 11.9s1.7 7.4 2.5 11.1c.2 1 .1 2 .3 3 .5 3.1 1.1 6.2 1.7 9.4s.7 3.3 1 5a55.5 55.5 0 0 0 .8 6.4 69 69 0 0 1 1.6 9.1c.2 1.8.6 3.5.9 5.3.9 4.5 2.1 9.1 2.8 13.6s1 9.2 1.5 13.9.9 9.4 1.4 14.1.7 7.2 1.1 10.9.8 9.6 1.2 14.4c.3 3 .4 6 .8 9s1 4.2 1.5 6.3a60.9 60.9 0 0 0 3.9 12.4c1.3 2.7 2.7 5.4 3.9 8.2s2.4 6.9 3.6 10.3a52.9 52.9 0 0 1 2.8 19.9c0 .9-.1 1.7-.1 2.6-.3 5.3.7 10.7.3 16a68.8 68.8 0 0 0-.2 11.6 100.1 100.1 0 0 1 .1 10.4c0 1.2-.2 2.3-.3 3.5s-.7 4.8-.7 7.1.1 5.6-.7 8.3a5.1 5.1 0 0 0-.1 1.8c.3 3.2.6 6.3.9 9.5a45.6 45.6 0 0 1 .2 7.7 15.7 15.7 0 0 0 .4 5.3c.5 1.9.9 2.1 3 2.1 3.8 0 7.6-.2 11.4.5a22.6 22.6 0 0 0 5.1.3c6-.3 11.8-1.6 17.6-2.8a5.3 5.3 0 0 0 3.2-1.7 15.2 15.2 0 0 0 2.5-5.7 101 101 0 0 0 1.3-12.7c.2-3.9-.2-7.9-.2-11.9v-10.9c0-3.6.3-5.4.3-8.1s-.2-5-.3-7.4.2-2.6.3-3.9 0-3.2.1-4.8.2-3.3.4-4.9.1-3.8.2-5.8c.2-3.6 1-7.2.3-10.9a17.4 17.4 0 0 1 .1-4c.1-1.8.3-3.6.3-5.3 0-3.5-.4-7-.2-10.5a26.3 26.3 0 0 1 1.7-7.9c1.4-3.7 3.5-7.1 5.1-10.7a7.7 7.7 0 0 0 .9-3c0-4.2 0-8.3-.2-12.5s-.7-5.4-.8-8.1c-.2-4.4-.3-8.8-.3-13.2s.3-7.4.4-11.1-.6-6.3.3-9.4a5.8 5.8 0 0 0-.2-2c-.2-1.9-.5-3.8-.5-5.8s.3-3.1.2-4.6-.2-4.2-.3-6.3 0-6.2 0-9.3a14.8 14.8 0 0 1 .2-1.6c.3-2.9 1-5.9.9-8.8a51 51 0 0 1 .6-8.8c.1-.8-.1-1.5-.1-2.3s.1-3.5.2-5.3.3-1.5.2-2.3c-.1-3.6-.3-7.1-.3-10.7a37.2 37.2 0 0 1 .5-6.5 42.2 42.2 0 0 0 .7-9.3c0-.8-.3-1.7-.3-2.5.1-3.2.9-6.4.6-9.6a26.1 26.1 0 0 1 .7-5.7c.4-2.8.8-5.7 1.4-8.5a6.4 6.4 0 0 0-.1-3.4 10.4 10.4 0 0 1-.5-5 17.3 17.3 0 0 0-.1-2.8c0-3.3-.1-6.7.1-10s.6-4.8.7-7.2-.3-5.4-.4-8.1a5.4 5.4 0 0 1 .1-1.2l1.2-7.3c.5-2.7.8-5.5 1.4-8.2a16.2 16.2 0 0 1 3.6-8c1.1-1.2 2.2-1.4 3.5-.5a5.2 5.2 0 0 1 1.8 2 50 50 0 0 1 2.4 7 80.9 80.9 0 0 1 2 12.1 81.2 81.2 0 0 0 2.3 12.6c1.1 4.6 1.3 9.5 1.8 14.3a29 29 0 0 1-.2 3.5c-.1 3.3-.3 6.5-.1 9.8.3 4.9 1.6 9.7 1.5 14.7-.1 3.1 1.1 6.2 1.7 9.3a6.1 6.1 0 0 1 .3 1.8 20.5 20.5 0 0 0 .5 6.7 86.4 86.4 0 0 1 1.4 13.9c.2 7.3.4 14.5 1.3 21.8a178.2 178.2 0 0 1 1.2 25.1c0 1.3 0 2.6.1 4s.3 4.8.3 7.2-.6 5.2-.3 7.7-.3 7.1-.2 10.7-.1 6.4 0 9.6.3 8.3.4 12.5v2.1c-.1 3.9-1.2 7.8-1 11.7a36.4 36.4 0 0 0 3.3 14.1 25.9 25.9 0 0 1 3 11.8 17.9 17.9 0 0 0 .1 1.9c.3 3.1.7 6.2.8 9.3.1 6.2 0 12.4.1 18.6 0 .6.2 1.2.2 1.8s.4 3.9.5 5.8-.2 4.8.3 7.1c.9 4.8.4 9.6.7 14.3.1 1.9-.2 3.9-.3 5.8v11.8c0 .8.2 1.7.2 2.5s.1 3.7 0 5.6c-.1 3.8-.4 7.6-.3 11.4s.8 6.5.5 9.7 1.2 6.4 4.7 8.3 7.1 4.4 11.6 4.2l.7.2c2.5 0 4.9.1 7.4-.1a28 28 0 0 0 8.3-1.9l1.1-.2h7.1c1.1 0 1.9-.3 2.1-1.4a38.8 38.8 0 0 0 .7-5c.1-1.3-.3-2.6-.2-3.9.2-4.1.5-8.2.9-12.3a13.3 13.3 0 0 0-.4-6 5.2 5.2 0 0 1-.1-1.6c0-1.7.1-3.4 0-5.1s-.6-4.6-.8-6.9-.7-5.7-.3-8.6a43.7 43.7 0 0 0 .4-8.1 154.3 154.3 0 0 1-.4-17.4c.3-4.9.2-9.9.5-14.9a105.4 105.4 0 0 1 1.6-12 33.5 33.5 0 0 1 2.3-6.8c1.4-3.2 3-6.3 4.4-9.5l4.6-10.1a3.7 3.7 0 0 0 .2-.7 51.1 51.1 0 0 0 1.3-12.5 80.7 80.7 0 0 1 1.8-16.6c.3-1.6.6-3.2.7-4.8.4-3.4.5-6.8 1.1-10.2s.8-8.7 1.2-13.1a59.4 59.4 0 0 1 1.4-10.3c1-4 1.2-8.2 2.6-12.3s.9-7 1.3-10.6 1.1-7.6 1.7-11.5c.1-.7.4-1.4.4-2 .5-4.3.9-8.6 1.4-12.9.2-2 .8-4 .9-6 .4-7.1.9-14.3 1.1-21.4.2-9.4.1-18.8 0-28.3 0-1.3-.1-2.6-.2-4-.4-4.2-1.2-8.5-.9-12.8a2.1 2.1 0 0 0-1.7-2.4c-3.1-1-6.1-2.1-9.3-2.9s-7.3-3.3-10.2-6.2a35.1 35.1 0 0 1-6.3-9.5 17.8 17.8 0 0 1-1.4-4.6c-.4-2.2-.5-4.4-.8-6.7s-.6-5.9-.8-8.8-.2-5.9-.5-8.8c-.5-4.9-1.2-9.7-1.8-14.5a45.3 45.3 0 0 1-.3-4.6c-.1-4.6 0-9.2-.2-13.8s-.7-7.9-.7-11.8.5-6.6.7-10c.1-.8 0-1.6-.1-2.3s-.1-4-.1-6 .2-3.8.1-5.7-.5-6.5-.8-9.7a7.3 7.3 0 0 1 .2-2.1c.8-3.8 0-7.5-.8-11a32.7 32.7 0 0 1-1.2-6.3 80.7 80.7 0 0 1-.3-8.8 57.9 57.9 0 0 0-.5-14.5 12.3 12.3 0 0 1-.1-2.3c0-2.1.1-4.1.1-6.2a5.6 5.6 0 0 0-.2-1.4c-.4-1.6-.9-1.9-2.5-1.6s-2.9.5-4.3.9a11.6 11.6 0 0 0-2.9 1.4l-5.2 3.6a5.8 5.8 0 0 1-4.2 1.1 7.1 7.1 0 0 0-4.5.7 1.6 1.6 0 0 1-2.4-.7 17.4 17.4 0 0 1-.8-3.1c-.2-.6-.3-1.7-.7-1.8a4.7 4.7 0 0 0-3.1-.4 14.4 14.4 0 0 1-5.2 1 19.8 19.8 0 0 0-4.1.6 2.8 2.8 0 0 0-1.7 1c-1.6 2.9-4.1 5-6.4 7.3a4.2 4.2 0 0 1-2.9 1.4 13.2 13.2 0 0 0-1.8.4l-9.8 1.6h-1.6c-2.4-.1-2.8.2-3.5 2.4a33.2 33.2 0 0 0-1.6 9.6c.1 3.5-.3 7-.4 10.4-.1 1.7 0 3.4-.2 5.1s-.9 5.6-.8 8.5-.3 5.6-.4 8.4c-.1 5.3 0 10.6 0 15.9 0 1.3.3 2.6.4 3.9s0 3.1.1 4.7q.1 5.8.3 11.6c0 .8.1 1.6.2 2.3.6 4.7 1.3 9.4 1.8 14.1a8.3 8.3 0 0 1-.3 2.7c-.5 2-1 3.9-1.5 5.8a10 10 0 0 1-.8 2.7zm80.7-18.3h-.5c.5 5 1.1 10 1.6 15s1.2 9.5 1.3 14.3a72.2 72.2 0 0 0 1.9 16.4 45.8 45.8 0 0 0 2.7 7.6 29 29 0 0 0 3.1 4.6 6.6 6.6 0 0 0 1.7 1.8c1.7 1.1 3.5 2 5.3 2.9 3.8 1.9 8 2.5 12 3.6a3.7 3.7 0 0 0 1.6 0 39.3 39.3 0 0 0 12.9-4.5l6.5-3.5a37.9 37.9 0 0 0 5.4-3.1 76.6 76.6 0 0 0 5.9-5.6l4.4-4.5a5.6 5.6 0 0 0 1.6-3.6 4.3 4.3 0 0 1 1.5-3.3 4 4 0 0 0 1.3-3.1c.1-1.9.3-3.7.4-5.6.1-6.3 1.3-12.4.9-18.7-.2-3.2-.1-6.4-1.5-9.3a4.1 4.1 0 0 1-.3-1.4c-.3-4.2-.5-8.5-1-12.7a60.4 60.4 0 0 0-1.6-8.4c-.7-2.6-1.6-2.9-4-1.7l-.8.4c-1.7.8-2.7.4-3.5-1.3a10 10 0 0 1-.7-2.2c-.5-2.5-.9-5-1.3-7.6s-1-5.3-1.2-8a13.5 13.5 0 0 0-.6-4.1c-1-2.5-1.6-5.1-.3-7.7a15.1 15.1 0 0 1 1.9-3.4c1.7-2 2.6-4.7 4.8-6.5a3.6 3.6 0 0 0 .9-2.3c.1-1.3-.2-2.7.1-3.9a9.8 9.8 0 0 0-.5-5.7 14 14 0 0 1-.5-3.2c-.1-.5.1-1.1.1-1.6-.4-3.8-1-7.5-1.4-11.3s-.6-6.7 1.2-9.8c.8-1.3 1.3-2.8 2.1-4.2a4.4 4.4 0 0 0 0-5c-.9-1.4-1.7-2.8-2.5-4.2s-3-5.8-2.3-9a34.4 34.4 0 0 1 2.6-7.9 24 24 0 0 0 2.2-8 42 42 0 0 1 1-5c.4-1.7 1-3.3 1.3-4.9.7-3.4 1.3-6.9 2-10.3 1.2-5.9 2.4-11.8 3.6-17.8.3-1.4.3-2.8.5-4.1.5-3 1-6 1.4-8.9a15 15 0 0 0 .5-4.1 6.2 6.2 0 0 1 .9-4.4 2.7 2.7 0 0 0 .4-1.5 20.9 20.9 0 0 1 1.4-8.4 2.4 2.4 0 0 0 .1-1.5 7 7 0 0 1 .1-5l1.5-5.1a2.4 2.4 0 0 0 .2-.9 26.8 26.8 0 0 0-.8-5.3c-1.7-5.1-.8-10.3-1.1-15.5a7 7 0 0 1 .3-1.1 8.3 8.3 0 0 0 .1-1.4l-.3-7.2a67.9 67.9 0 0 0-.3-7.7 33 33 0 0 1-.7-7.8 21.5 21.5 0 0 0-.1-4.2c-.5-4.8-1.2-9.7-1.6-14.5s-.4-8-.5-12.1a14 14 0 0 1 .4-2.3c.3-2 .9-4 .8-6-.4-4-1.2-7.9-1.9-11.9-.1-.9-.2-1.8-.3-2.8-.3-2.5.4-4.9 0-7.4a7 7 0 0 0-2.6-4.7 24.6 24.6 0 0 1-3-2.6 10.4 10.4 0 0 0-5.3-2.8c-3.7-1-7.5-1.7-11.3-2.6l-11.7-3.1-9.8-2.6-6.3-1.8a47.6 47.6 0 0 1-5-1.9 2.8 2.8 0 0 0-3.4.6 3.2 3.2 0 0 0-.7 3.7c1.3 3.3 2.7 6.6 4.1 9.8l7.2 15.3 5.1 10.9c.6 1.3 1.2 1.6 2.6 1.1s4.4-2 6.6-2.8c4-1.5 8-3 12-4.2 1.5-.5 3-.6 4.3-1.6s1.3-1 2.1-.4a2.1 2.1 0 0 1 .6 2.5 6.2 6.2 0 0 0-.2 3c.7 3-.6 5.7-1.3 8.4s-2.7 7.4-4 11.2a9.6 9.6 0 0 0-.4 2c-.3 2.6-.5 5.2-1 7.8s-2 8-3 12a12.6 12.6 0 0 1-2.9 6 2.5 2.5 0 0 0-.6 1.7 17 17 0 0 1-1.7 8.4c-.7 1.5-1.2 3-1.8 4.5s.1 3.3 2.1 3c4.3-.8 8.5-1.8 12.2-4.3a10.2 10.2 0 0 1 3.1-1.5c1.7-.4 2.7.7 2.4 2.4a19.6 19.6 0 0 1-.8 2.7 4.7 4.7 0 0 1-3.5 3.1 74 74 0 0 0-12.2 4.4c-1.6.7-3.6.9-4.8 2.1s-1.7 3.1-2.5 4.7c-2.3 4.3-4.7 8.6-6.8 13-1.3 2.8-2.6 5.6-4.1 8.3s-3.4 7-5 10.5-3.6 8.8-5.8 12.9-5.9 10.9-9.3 16.1a47.6 47.6 0 0 0-5.9 14.5c-1.2 4.7-2.5 9.3-4 13.8s-2.3 6.4-2.2 9.9a13.4 13.4 0 0 0 .7 5.4 3.9 3.9 0 0 1 .3 1.4c.1 1.9.1 3.8.2 5.8.2 4.9.5 9.7.8 14.6a7.8 7.8 0 0 0 1 3.5c1.9 3 1.6 6.4 1.7 9.7s-.3 6-.4 9-.1 4.7.1 7 .6 5.1.9 7.6a60.8 60.8 0 0 1 0 13.9 48.8 48.8 0 0 0-.2 6.5c0 2.2.3 4.5.3 6.7s-.4 2.6-.4 3.9c-.1 3.7.1 7.3 0 11s-.6 5.6-.5 8.3.4 7 .7 10.4.8 7 1.1 10.3zm-131.8-348a12.7 12.7 0 0 1-2.7 1c-3.8.3-7 2.4-10.5 3.6l-11.8 4.3-12.8 4c-5.6 1.8-11.1 3.7-16.8 5.4a24.9 24.9 0 0 0-6.9 3.2 3.5 3.5 0 0 0-1.8 3.5 8.7 8.7 0 0 1-.3 2.5c-.4 2.3-.9 4.6-.3 6.9a8.5 8.5 0 0 1-.1 2.3c-.2 3.4-1.6 6.6-1.4 10.1a15 15 0 0 1-.2 2.5c-.4 4.2-.8 8.3-1.1 12.5s-.2 6.7-.5 10a48.8 48.8 0 0 1-1.2 7.3 69.5 69.5 0 0 0-2.4 17.2 63.1 63.1 0 0 1-.2 6.7 30.7 30.7 0 0 0 0 6.9 36.3 36.3 0 0 1-.2 5.8v2.8c.1 3.7.3 7.4.4 11.2 0 1.1-.3 2.3-.4 3.4s.1 4.1 0 6.2-.5 4.1-.7 6.2a34.2 34.2 0 0 0-.3 3.9c0 3.3.2 6.5.2 9.8 0 1.2-.6 2.4-.4 3.4.5 2.8.1 5.6 0 8.3a117.2 117.2 0 0 0 .7 17.4c.5 4.6.3 9.2.6 13.8a27.3 27.3 0 0 1-.4 4.4c-.2 1.9-.3 3.9-.6 5.8s-2.1 4.6-3.4 6.8a17.7 17.7 0 0 0-2.3 12.5c.7 3.6 1.5 7.3 2 11a16.2 16.2 0 0 1-.2 6.2 66.5 66.5 0 0 0-1.8 10 50.6 50.6 0 0 1-1.8 9.1c-.7 2.5-1.6 4.9-2.3 7.3a3.8 3.8 0 0 0 .6 4c1.9 2 3.8 4.1 5.9 5.9 3.7 3.3 4.4 7.3 3 11.8a38.1 38.1 0 0 1-2 4.7 125.5 125.5 0 0 0-5.9 14.1 8.9 8.9 0 0 1-5.4 5.5 3.7 3.7 0 0 0-2.5 3.3c-.5 3.4 0 6.8-1.3 10.1s-1.2 4-2.1 5.9a22.9 22.9 0 0 1-2.8 3.7c-1.2 1.6-2.7 3.1-2.9 5.2a68.8 68.8 0 0 0-.1 8.2c.1 2.4.4 4.9 2.4 6.7l2.4 2.2a18.8 18.8 0 0 1 2.8 3.1c2.4 4 3.9 8.2 2.2 13-.4 1.2-.7 2.4-1.1 3.6-1.5 4.2-.9 8.4-.3 12.5a14.4 14.4 0 0 0 3.1 7c.7.9 1.2 2 1.9 3s3.3 5 5.4 7 7.2 4.5 11.3 5.6c2.6.7 5.3 1.3 7.8 2.1 4.4 1.4 8.6 2 13.2.9a38.4 38.4 0 0 0 15-7c2.1-1.7 4.4-3.5 5.7-5.7a81.8 81.8 0 0 0 5.1-11.4c1.5-3.7 2.8-7.6 4-11.4a47.2 47.2 0 0 0 1.5-5.4c1.1-5.4 2.2-10.8 3.2-16.2.7-3.9 1.4-7.7.7-11.7a40 40 0 0 1-.5-6.7c0-3.2.2-6.5.3-9.7 0-.3 0-.6-.1-.9-.1-3.2-.4-6.4-.4-9.5s.5-7.9-.7-11.8a3.1 3.1 0 0 1-.1-.9v-12.5a21.5 21.5 0 0 0 .2-2.5c-.4-3.1-.9-6.3-.3-9.5a3.6 3.6 0 0 0-.1-.9c-.3-3.4-.8-6.8-.9-10.2s.1-9.3-.3-14a94.1 94.1 0 0 1-.1-14.4c.3-4-1-7.6-1.7-11.4a28.9 28.9 0 0 1-.7-4.1 31.6 31.6 0 0 1 .1-4.4 31.5 31.5 0 0 0-.5-8c-1.1-6.2-2.4-12.3-4.1-18.3-.9-3.1-2.2-6.1-3-9.3s-1.7-7.5-2.9-11.2a81.5 81.5 0 0 0-3-8.8c-.3-.6-.4-1.3-.6-2l-6.8-19.8c-.9-2.5-1.7-5-2.5-7.5s-.9-3.4-1.3-5.2-.8-3.8-1.2-5.7-.7-2.4-1-3.6-1.5-4.6-2-6.9-.8-6-1.7-8.9a49.1 49.1 0 0 1-1.7-13.8 19.4 19.4 0 0 0-.2-2.6c-.4-3.1-1.2-6.3-1.3-9.4-.3-5.4-1.5-10.7-2.2-16.1-.4-3.1-.8-6.3-1.1-9.5-.5-5.3.6-10.5 1.6-15.7a5.8 5.8 0 0 1 5.6-4.7c3.6-.3 6.4 1.4 9.2 3.4l6.7 4.6a4.1 4.1 0 0 0 1.7.2 4.5 4.5 0 0 0 .1-1.7c-.6-1.7-1.5-3.3-2-5a31.5 31.5 0 0 1-1.1-5.4 3.4 3.4 0 0 1 .8-2.1c1.7-2.4 3.5-4.7 5.4-7a45 45 0 0 1 4.4-4.8 42.5 42.5 0 0 0 6.3-7.1c.7-1 1.5-1.8 2.2-2.7s2.4-2.6 3.5-4.1 2.2-3.2 3.3-4.8l4.9-6.8a7.7 7.7 0 0 0 1-1.8zm344.2-34.6a9.6 9.6 0 0 1 4.8 6.2 27.4 27.4 0 0 0 1.9 4.8c.8 1.7 1.4 3.6 3.6 4.3s6.2 1.7 9.4 1.2 8.4-1.6 12.6-2.2a65.8 65.8 0 0 0 13.7-3.7c2.4-.9 4.8-1.9 7.1-2.9l9.7-4.6a75 75 0 0 0 10.9-6.1c2.5-1.7 4.1-4.2 5.9-6.5a74.8 74.8 0 0 0 7.7-11.6l7-12.9a14.1 14.1 0 0 0 .8-1.9c.8-2.2 1.6-4.4 2.3-6.6a36.2 36.2 0 0 0 1.1-4.3c.5-2.8.7-5.7 1.5-8.4a90 90 0 0 0 3.2-18.5c.2-2.5.7-5.1 1-7.6s1-7.1 1.1-10.6.7-6.1.7-9.2.2-3.5.1-5.3-.8-6-.7-9a41.2 41.2 0 0 0-2-13.3c-1.3-4.6-3.3-9-5.1-13.5a37.9 37.9 0 0 0-2.2-5.1c-1.6-2.9-3.5-5.7-5.3-8.4a29.4 29.4 0 0 0-3-3.9c-2-2.1-4.3-3.9-5.9-6.5a10.5 10.5 0 0 0-3.1-2.7c-1.6-1.2-3.3-2.3-5.1-3.3l-8.2-5.1c-1.2-.6-2.5-.9-3.6-1.6s-5.4-2.3-8.3-2.9l-5.9-1.3a33.7 33.7 0 0 0-7.3-.9 89.4 89.4 0 0 0-10.8 1.6 42.8 42.8 0 0 0-6.3 1.6c-3 1-6 2.2-8.9 3.4a41.1 41.1 0 0 0-6.5 3 60.8 60.8 0 0 0-6.7 5.3 42.7 42.7 0 0 0-4.4 4.4c-1.4 1.6-2.5 3.3-3.8 5s-3.5 4.6-5 7-4.5 7.5-6.8 11.1-3.6 5.3-5.3 7.9a39.2 39.2 0 0 0-3.1 5.2 80 80 0 0 0-3.2 8.2q-2.6 7.8-4.9 15.8c-.8 2.9-1.5 5.9-2.2 8.8s-.5 4.7-1.7 7a23 23 0 0 0-1.4 4.9c-.4 1.3-.7 2.7-1 4.1s-.7 2.9-1 4.3-.4 2.8-.6 4.1a47.4 47.4 0 0 0-.4 13.9c.5 4.3 1.8 8.5 1.5 12.9a3.1 3.1 0 0 0 .2.9l1.6 6a12.3 12.3 0 0 1 .8 3.4c-.1 3.3 1.5 6 2.7 8.8a54.8 54.8 0 0 1 3 7.5 10.2 10.2 0 0 0 .9 2.1l4.3 7.5c.4.7.8 1.5 1.2 2.3s1.4 1 1.9 0a9.9 9.9 0 0 0 .8-7c-.2-.6-.2-1.2-.3-1.8-.7-2.4-1.2-4.8-2.1-7.1a51.3 51.3 0 0 0-3.2-6.9c-1.9-3.3.6-9 3.5-10.4a17.8 17.8 0 0 1 6.1-1.9c4.9-.4 8.7 1.8 11.6 5.7a48.8 48.8 0 0 1 3.6 5.4c1.6 2.9 3.2 5.9 4.5 8.9 3.1 6.7 1.6 13.7 1.1 21zm-415.1 61.3c-1.5 1.4-3.4 2.7-4.6 4.4-3.1 4.3-5.9 8.7-8.8 13.1a26.1 26.1 0 0 0-2.2 4.4c-1.8 4.5-3.7 9-5.3 13.6a43.9 43.9 0 0 0-3 15c0 3.2-1.2 6.2-1.5 9.3a11.7 11.7 0 0 1-.9 2.7 7 7 0 0 1-5.1 4.7 16.1 16.1 0 0 0-3.3 1.2 2.8 2.8 0 0 0-1.9 2.5c0 2 .2 4 .3 6s.4 2.9.4 4.4-.3 2.8-.4 4.2a19.6 19.6 0 0 1-1.2 6.3c-.6 1.4-.9 2.8-1.4 4.2-1.6 4.5-3.2 9-4.9 13.5s-2.8 6.6-3.8 10-1.8 7.4-2.7 11a82.1 82.1 0 0 1-2.3 8.3c-1.5 4.1-3.2 8.1-5 12a61.9 61.9 0 0 1-4.8 9.2c-1.9 2.8-4.5 5.1-6.7 7.7a12.2 12.2 0 0 0-1.8 2.9c-.9 2.1-1.7 4.2-2.4 6.3a34.8 34.8 0 0 0-1.2 3.8q-1.5 6.3-3 12.7c-.4 2-.8 3.9-1.1 5.9s0 1.7-.2 2.5c-.9 3.2.6 5.7 2.4 8.1s4.3 4.2 5.3 7.3a10.4 10.4 0 0 0 .7 1.2 4.9 4.9 0 0 1 .5 1.5 32 32 0 0 1-2.7 16.3 36.1 36.1 0 0 0-2.2 6.8c-.3 1.4-.7 2.9-.9 4.3-.4 3.1-1 6.1-1.1 9.2-.2 5.2-.1 10.4-.1 15.6v1.2c-.2 3.3-.6 6.6-.7 9.9s.1 5.4.3 8.1a43.8 43.8 0 0 0 2.7 13.8 48.8 48.8 0 0 1 1.8 5.7c.3 1 .1 2 .3 3s1.2 1.9 2.6 1.2a14.2 14.2 0 0 0 2.1-1.4l13.2-10.3 1.7-1.2c4.3-2.2 9-2.2 13.7-1.9a9.4 9.4 0 0 1 3.4.9c2.9 1.4 5.8 3 8.6 4.6s1.8.6 2.4-.9a6.3 6.3 0 0 0 .4-1.3c.5-3.1 1-6.1 1.4-9.2s0-4 0-6 .1-4 .2-6a43 43 0 0 1 .7-4.4l1.5-7.5a9.3 9.3 0 0 0 .4-1.6c.1-5.1 2.7-9.9 2.4-15.1a2.6 2.6 0 0 1 .2-.7c.9-3.7 1.8-7.4 2.6-11.1s1-5.2 1.5-7.7c.2-1.1.5-2.1.6-3.2s.6-4.9.9-7.4a13.9 13.9 0 0 0-.8-7.3 16.3 16.3 0 0 1-1-3.8 56.8 56.8 0 0 1-.3-13.7 10.1 10.1 0 0 1 1-3.8c.8-1.5 1.9-2.8 2.8-4.3s2.2-2.8 2.5-4.4a56.5 56.5 0 0 0 .1-16.7c-.5-4.2-.7-8.5-.9-12.7a100 100 0 0 1 .2-14.2c.4-4.8.4-9.6.5-14.3.1-2.8-.1-5.6.1-8.4a6.3 6.3 0 0 0-1.6-4.7 11.4 11.4 0 0 1-2-3.6c-1.3-4.7-4-8.7-6.4-12.9a47.7 47.7 0 0 1-3-5.8 5.4 5.4 0 0 1 3-6.7 1.7 1.7 0 0 1 2.4.7 9.6 9.6 0 0 1 1.6 6c-.6 4.5 2.3 7 5 10.1a7.4 7.4 0 0 0 1-4.7 19.6 19.6 0 0 1-.2-3c.1-2 .3-4 .3-6s-.4-4.5-.2-6.7c.4-4.7 1-9.4 1.6-14.1.3-2.2.8-4.4 1-6.6.4-4.9.6-9.9 1-14.8s.6-10.2 1.1-15.3a40.4 40.4 0 0 1 1.6-6.5c.6-2.2 1.5-4.2 1.9-6.4s1.2-6.6 1.5-9.9a37.3 37.3 0 0 0 0-6.2 3 3 0 0 0-1.8-2.9zm180.4 173.8l.6-1c1.8-4.4 3.5-8.8 5.4-13.1a37.9 37.9 0 0 0 3.4-14.4c.2-3.9-.2-7.9-.2-11.8 0-1.5.3-3.1.3-4.6-.2-4.1-.6-8.2-.7-12.2-.1-2.3.3-4.6.3-7s-.3-6.4-.3-9.5c0-5.3.2-10.6.3-15.8 0-.5.1-1.1.2-1.6.3-3.9.7-7.7.8-11.6s-.4-6.5.1-9.7a16.8 16.8 0 0 0 .3-3c-.1-3.5-.4-7-.4-10.4.1-8.5.2-16.9.5-25.4.1-3 .5-6 .6-9s-.1-6.2-.1-9.3v-23.6c0-1.9.2-3.7.3-5.6a4.1 4.1 0 0 0-1.3-3.6l-1.1.6c-2.3 1.8-2.9 4.4-3.4 6.9s-1.6 6.5-4.6 8.6-3.1 2.4-4.5 3.6-2.7 2.3-4 3.5l-10.4 10.3a2.4 2.4 0 0 1-2.5.8 2.7 2.7 0 0 1-1.7-2.3c-.6-3.9-2-7.4-3.3-11s-2.8-8.5-4.1-12.8a3.9 3.9 0 0 0-1.7-2.4l-4.3-2.8a1.8 1.8 0 0 0-1-.5 8.8 8.8 0 0 0-5.1 2.9 2.6 2.6 0 0 0-.3 1.5c0 1.2.2 2.3.2 3.5s.1 4.8.2 7.2c.3 5 .7 10.1.9 15.1.1 2.2-.4 4.3-.4 6.5a22 22 0 0 1-1.3 7.1 17.2 17.2 0 0 0-.9 3.4 84.2 84.2 0 0 1-3.7 14.6c-.8 2.4-1.6 4.7-2.2 7.1-1 4.2-1.8 8.4-2.7 12.6a10.8 10.8 0 0 0-.1 1.4c-.2 3-.5 6-.7 9s-.2 6.2-.2 9.3.2 5 .4 7.4c.4 4.7.5 9.5 1.2 14.1a67 67 0 0 1 .7 8.8c.2 5.7-1 11.3-2 16.8s-2.1 8.1-2.1 12.3a3.2 3.2 0 0 1-.3 1.1 23 23 0 0 0-1.6 11.6c.3 2.2.6 4.4 1 6.7.7 3.8 1.5 7.6 2.2 11.4.4 2.2.7 4.4 1.1 6.8 3.2-.2 6.3.3 9.4-.5a13.1 13.1 0 0 1 3.2-.4l13.5-.2c5.6-.2 11.1 1.1 16.6 1.7 3 .5 6.3.6 9.5.9zm200.5-164.7l-2.1 2.4c-1.5 1.8-2.9 3.7-4.5 5.3s-5.2 4.9-7.8 7.4-2.4 2-3.6 3-4.5 2.9-6 5.1a3.3 3.3 0 0 1-1.3 1 3.6 3.6 0 0 0-2.1 3.4c-.1 1.5-.2 3.1-.4 4.6s-.8 4.1-1 6.1a8.1 8.1 0 0 0 .3 3.7 8.3 8.3 0 0 1 .1 5.2 5.4 5.4 0 0 0-.2 2.5 13.4 13.4 0 0 1 0 6 9.1 9.1 0 0 0-.2 3 28.1 28.1 0 0 1 .6 8.7 2.5 2.5 0 0 0 .1.9c.4 1.6.8 3.3 1.2 4.9s-.5 4.6-2.1 6.5a1.5 1.5 0 0 1-2.3.2 3.7 3.7 0 0 1-1.2-1.6c-.6-2-2-3.9-1.7-6.2a3 3 0 0 0-.4-1.8 10.8 10.8 0 0 1-1.8-6.6c0-.8-.5-1.7-.3-2.5a13.6 13.6 0 0 0-.4-7.3 5.3 5.3 0 0 1-.1-1.4c-.2-2.4-.3-4.8-.5-7.2a3.6 3.6 0 0 0-.8-1.3 3.8 3.8 0 0 0-1.2.9c-.5.8-.6 1.8-1.1 2.6a20.3 20.3 0 0 0-3.2 8.9c-.3 2.6-.8 5.4.7 7.7s.9 3.9.3 5.8a4 4 0 0 1-3.1 2.9c-1.7.3-2.5-1.1-3.2-2.3a6.2 6.2 0 0 1-.6-2c-.2-1.1-.4-2.3-.6-3.4a12.4 12.4 0 0 1-.3-2.5 33.6 33.6 0 0 1 4-13.9c1.6-3 3.3-5.9 5-8.9s.6-3-1.1-3.6a15 15 0 0 0-4.7-1.1 9.8 9.8 0 0 1-5.1-1.5c-1.9-1.1-3.5-2.6-3.9-4.9s-.5-4.1-.9-6.2a10.2 10.2 0 0 0-1.3-3 1.9 1.9 0 0 0-2.6-.8c-2.7 1.5-6 1.9-8.1 4.3a2.5 2.5 0 0 1-1 .6 12 12 0 0 0-6 5 2.1 2.1 0 0 1-.8.8 9.2 9.2 0 0 0-3.8 3.6l-5.7 7.9a3.6 3.6 0 0 0-.4.8 34.5 34.5 0 0 1-6.9 11.7 4.4 4.4 0 0 0-1 2.5c-.3 3.5-.6 7-.6 10.4a61.2 61.2 0 0 0 .4 9.3c.3 2.4 1 4.6.6 7.1a10 10 0 0 0 .2 3 17.3 17.3 0 0 1 0 6.5 4.7 4.7 0 0 0 .1 3.5h.6l.6-.3c1.3-1.7 3-1.4 4.6-.7a43 43 0 0 1 5 2.4 16 16 0 0 0 8.1 2.3 3.2 3.2 0 0 1 1.7.5 6.9 6.9 0 0 0 4.2 1.1 7 7 0 0 1 2.1.1 20.5 20.5 0 0 0 6.4 1 23.7 23.7 0 0 1 3.4.5c3 .6 6 1.4 9.1 1.7a19.1 19.1 0 0 1 5.4 1.1 38.2 38.2 0 0 0 14.3 2.7 11.3 11.3 0 0 0 3-.2c1.5-.4 2.9-.8 4.5 0a2.9 2.9 0 0 0 1.4.1l5.1-.3a13.5 13.5 0 0 0 3.5-.3c3.9-1.3 7.7-2.7 11.5-4.4 1.3-.6 2.4-1.9 3.5-3s1.7-2 2.6-3a37.9 37.9 0 0 0 2.9-3.6c1.2-1.9 2.2-3.9 3.3-5.9s4-6.1 5.1-9.6c.5-1.7 1.2-3.4 1.6-5.1 1.1-4.1 2.2-8.2 3.1-12.4s1.6-7.8 3.7-11.2l3-4.7c1.7-2.8 3.3-5.6 5.2-8.2s4.4-5.6 6.7-8.3 2.2-3 3.9-3.9a7.4 7.4 0 0 0 2.2-2 2 2 0 0 0 .3-1.7 42.2 42.2 0 0 0-2.1-4.1c-1.3-2.3-2.4-2.3-4-.3a7.4 7.4 0 0 1-2.3 1.9 39.2 39.2 0 0 1-14.3 3.8 11.8 11.8 0 0 1-4.8-.4c-4.1-1.4-7.5-4.1-10.7-6.9s-4-4.9-5.7-7.6-3-3.9-3.3-6.8zM390.1 765.3c-1.6 1.1-2 2.5-2.7 3.8a5.1 5.1 0 0 1-3 2.8l-8.3 1.9a3.4 3.4 0 0 1-1.1-.1c-3.6-.6-7.2-.8-10.8.3a8.7 8.7 0 0 1-6.4-.4 18.2 18.2 0 0 0-3.1-.9c-1.7-.4-2.3 0-2.7 1.6a50 50 0 0 0-1 5.7 28.5 28.5 0 0 1-2.6 9.1 108.3 108.3 0 0 0-5.4 14.8c-1.9 6.2-3.7 12.5-5.5 18.7a31.2 31.2 0 0 0-1.4 6.8c-.2 4.6 0 9.2-.1 13.8 0 2.2-.2 4.4-.4 6.7s-.3 2.8-.4 4.2c-.1 3-.1 6.1 0 9.1q.1 9.9.4 19.8a23 23 0 0 1-.4 7 7 7 0 0 0-.1 2.5c.2 2.3.7 4.6.8 6.9.1 4.8 0 9.6.1 14.5 0 1.6.5 3.3.4 4.9s-.6 5.8-1.1 8.7-1.2 5.4-1.6 8.2-.9 7.5-1.2 11.3c-.2 1.7.3 2.4 1.9 3 3.2 1.3 6.1.3 8.9-1.1a60.6 60.6 0 0 0 6.5-3.6 15.4 15.4 0 0 1 9.1-2.3 8.7 8.7 0 0 1 7.7 4 5.3 5.3 0 0 0 3.2 2.2 29.5 29.5 0 0 1 4.1 1.6c2 .9 3 .7 4-1.2a8 8 0 0 0 1-2.8c.3-2.6.5-5.3.7-7.9a17.1 17.1 0 0 1 .2-2.3 205.9 205.9 0 0 0 3.7-20.6c.8-7.1 2-14.1 3-21.2.2-1.3.5-2.6.6-3.9.5-4.9 1.1-9.7 1.2-14.6s1.7-11.5 1.6-17.4c-.1-3.3.6-6.6.8-10 .3-6.5.4-13 .6-19.5 0-.6-.1-1.2-.1-1.9-.1-2.4-.3-4.8-.3-7.1s.2-2.8.3-4.2c.1-3.7.1-7.4 0-11.1 0-2.1-.2-4.1-.3-6.2a60.7 60.7 0 0 1 0-6.5 87.1 87.1 0 0 0 .5-9.9c-.1-4.1.1-8.2.2-12.3a9.7 9.7 0 0 0-1.5-4.9zM528.7 472l-.9-4.2c-.2-1-.5-1.9-.6-2.9-.6-4.4-1.1-8.9-1.9-13.4a28.6 28.6 0 0 1 0-11.5c.6-2.5 1.3-5 1.7-7.5.7-4.3 1.3-8.5 2-12.8a22.5 22.5 0 0 0 .4-3.5c0-3.3-.1-6.6-.3-10s-.5-6.2-.8-9.2-1.2-7.3-1.6-11-.4-7.8-.5-11.6a52.9 52.9 0 0 1 .3-6.5c.5-4.5.5-9.1 1.7-13.6a25.3 25.3 0 0 0 .7-4.4c.4-4.9 2.1-9.5 3.6-14.1 1-3 2.1-6 2.8-9.1s1.3-6.8 2.1-10.2a25.3 25.3 0 0 0 .1-9.3c-.8-5.1-1.7-10.3-1.6-15.5.1-2.9.5-5.8.8-8.8a32 32 0 0 0 .1-3.7c0-1.2-.6-1.5-1.7-1.1a7.3 7.3 0 0 0-4.1 3.3 11.2 11.2 0 0 1-4.7 4.7 9.3 9.3 0 0 0-4.3 4.5 7 7 0 0 1-1.5 2 66.3 66.3 0 0 0-9.1 11.1 12.3 12.3 0 0 1-1.7 1.9c-1.6 1.6-2.7 1.4-3.5-.8a4.8 4.8 0 0 1-.2-1.8 23.8 23.8 0 0 0-.9-9 3.3 3.3 0 0 0-3.4-2.3 3.1 3.1 0 0 0-3 2.4 15.5 15.5 0 0 1-.6 2.5 41 41 0 0 0-3.1 9.7c-.6 2.9-1.7 5.7-2.4 8.5q-2.4 9.9-4.7 19.9c-.8 3.6-1.7 7.3-2.2 10.9s-.4 6.3-.8 9.5c-.8 6.3-1.7 12.6-2.5 18.9-.6 4.2-1.1 8.5-1.6 12.7-.3 2.1-.4 4.2-.8 6.2s-1 4.5-1.6 6.8-.8 2.3-1 3.6c-.5 3-.7 6.2-1.4 9.2a66.8 66.8 0 0 0-1.6 18.2 26.7 26.7 0 0 0 1.2 7.3c.7 2.3 2.2 4.3 3.1 6.5 3.1 7.2 6 14.4 9.1 21.6a7.8 7.8 0 0 0 2 2.5 39.3 39.3 0 0 0 4.5 3.7 8.8 8.8 0 0 0 3.4 1.3 26.5 26.5 0 0 0 5.8.4c3.9-.2 7.7-.7 11.5-1l2-.4 9.7-.3zM382.6 751.8l-2.2-4c-.5-1-1-2-1.5-2.9a3.7 3.7 0 0 0-3.8-1.7 7.2 7.2 0 0 1-2.7-.2 7.6 7.6 0 0 0-5.2.4 7.3 7.3 0 0 1-4.8.4l-6-1.7a2.3 2.3 0 0 1-1.2-1.3 9.8 9.8 0 0 1-.3-6c.5-1.9 1.4-3.8 2.1-5.6s.4-3.1-1.9-3.3a12.2 12.2 0 0 1-6.6-3.1l-3.3-2.6a1.3 1.3 0 0 0-2 .2c-1.4 2-3.5 3-5.5 4.1a5.9 5.9 0 0 1-5.5.5 33.2 33.2 0 0 1-5.2-2.9 5.5 5.5 0 0 1-1.5-2.3 15.4 15.4 0 0 1-.6-2.2c-.4-1.3-.9-1.6-2.2-1.4a30.6 30.6 0 0 1-3.2.6 16.4 16.4 0 0 0-9.5 3.8 12 12 0 0 0-4.2 5.1 47.3 47.3 0 0 0-1.7 5.8c-.6 2.4-.7 4.9-1.5 7.3a42.6 42.6 0 0 0-2.2 10.9 15.9 15.9 0 0 1-2.3 7.7c-.4.7-.7 1.4-1 2.1-2.2 4.3-4.5 8.5-6.6 12.8s-3.5 6.2-4.3 9.8c-.4 1.9-1.4 3.9-1.1 5.6s1.6 4.1 2.7 6.1 1.1.9 2.2 1.7l1.2-1.9a14.1 14.1 0 0 1 1.7-2.2c2.5-2.3 4.9-3.5 7.5-1s3.4 3.6 5 5.5a1.9 1.9 0 0 1 .5 1c.1 3.3.8 6.8-.8 9.9a11.6 11.6 0 0 0-.7 7 18 18 0 0 1-.1 6.6 3 3 0 0 0 1.3 3.2 20.8 20.8 0 0 0 16.6 4.4 18.9 18.9 0 0 0 4.3-1c2.8-1.1 4.2-3.6 5.2-6.2s1.7-5.1 2.6-7.7 2.8-7.9 3.9-11.9c1.7-5.6 3.3-11.3 4.7-17 .9-3.8 2.7-7.3 3-11.2a7.8 7.8 0 0 1 .9-2.6 32.8 32.8 0 0 1 10.6-13 18.4 18.4 0 0 1 4.7-2.4 44.9 44.9 0 0 1 11.8-2.2c1.7-.1 3.4.2 5.1.2s2.6.4 3.6-1.2zM657 322.1a15.7 15.7 0 0 0 .8-7.2 1.3 1.3 0 0 0-1.8-1.3 21.7 21.7 0 0 0-2.5.6l-13.2 5.1a42.6 42.6 0 0 0-13.3 8c-1.1 1-2.2 2.1-3.4 3.1s-3.7 1.1-5-1.1a84.3 84.3 0 0 0-9.6-12.5 6.8 6.8 0 0 0-4.6-2 1.4 1.4 0 0 0-1.6 1.4 20.2 20.2 0 0 0-.1 3.6c.4 5.1-.9 10.2-.9 15.3 0 1.3-.1 2.6-.2 3.9-.3 3.5-1.1 7.1-.9 10.6a92.4 92.4 0 0 1-.7 15.4 7.6 7.6 0 0 0 .1 1.6c.2 1.8.7 3.6.5 5.3a26.7 26.7 0 0 0-.4 7.1c.4 3.9.6 7.9.6 11.9s-.1 6.7-.4 10-.9 3.9-1 5.9a63.2 63.2 0 0 0 0 8.9c.2 3-.6 6-.6 9s.9 8.9.3 13.4a9.1 9.1 0 0 0 .2 2.1 5.1 5.1 0 0 1 .1 2.1c-1.1 3 .6 5.9.3 8.9s.4 3.5.7 5.3.6 3.6.9 5.3h.7a14.3 14.3 0 0 0 .8-1.5c1.3-3.2 2.5-6.6 4-9.7 2.6-5.2 5.6-10.2 8.3-15.3s5.4-8.9 7.2-13.8a40.2 40.2 0 0 1 2.6-5.2c3.4-6 6.9-11.9 9.8-18.2 1.9-4.1 3.4-8.3 5.1-12.5.7-1.8 1.5-3.6 2.1-5.4a116.8 116.8 0 0 0 3.7-12.4c.3-1.1.7-2.2 1-3.4a1.7 1.7 0 0 0-1-2.1l-6-3.1c-1.6-.9-3.1-1.8-4.5-2.8a1.8 1.8 0 0 1-.8-2.4c.8-1.4 1.3-3 2.7-4 4.3.5 7.5 3.2 11.3 5a2.6 2.6 0 0 0 .9-.8 5.4 5.4 0 0 0 .5-2.4c0-.3-1.2-.4-1.8-.6a8.3 8.3 0 0 1-2.5-1c-1.9-1.5-3.5-3.3-5.4-4.8s-2.2-1.9-1.8-3.7.9-3.6 3.1-4.2l.9.7 7.6 6.5c1.6 1.3 2.4.9 2.8-1.1a10.5 10.5 0 0 0 .3-1.6c0-1.5-.1-3-1.6-3.9l-7.6-4.4a2.8 2.8 0 0 1-1.3-1.5c-.5-2.3 1.8-5 4.3-5a5.2 5.2 0 0 1 4.3 1.4c1.3 1.3 2 1.2 3.5.1l-1.3-1.3-3.9-3.3a3 3 0 0 1-1-3.4 2.5 2.5 0 0 1 2.9-1.4 21.2 21.2 0 0 1 3.6 1.3 15.6 15.6 0 0 1 2.2 1.5zm-174.2-4.5c-2.6 2-4.7 3.5-6.7 5.2s-6.5 4.9-9.2 8.2-4.2 4.6-6.3 6.8a36 36 0 0 1-3.3 3.3 4.7 4.7 0 0 1-4.8 1.1c-3.9-1.6-7.6-3.5-9.9-7.4a5.9 5.9 0 0 0-2.9-2.5c-1.9-.8-3.8-1.8-5.6-2.8s-3.2-.7-3.7 1.4a11.6 11.6 0 0 0-.3 4.8c.8 4.6 2.2 9 2.9 13.6s.7 7.7 1 11.6a37.3 37.3 0 0 1 .4 5.3c-.3 4.9.7 9.7 1.4 14.5s2.2 11.7 3.4 17.6c.5 2.3 1.1 4.5 1.8 6.7 1.2 3.9 2.6 7.8 3.7 11.7.7 2.3 1.8 4.4 2.1 6.8a57.7 57.7 0 0 0 2 7.8c.8 2.5 1.7 4.9 2.5 7.4s1.4 4.6 2.4 6.8a106.4 106.4 0 0 1 5.9 16.6 78.1 78.1 0 0 0 4.2 11.3 9.6 9.6 0 0 0 .7-2.2c.2-4.5 1.3-8.9 1-13.4-.1-1.5.2-2.9.2-4.4s-.4-5.5.2-8.1.7-6.8 1.2-10.1a12.1 12.1 0 0 0 .4-4.1c-.7-3.6.4-7 .8-10.4s.7-8.6 2.2-12.8a47 47 0 0 0 1.5-6.3 106.2 106.2 0 0 0 2.2-10.7c.5-4.5 1-9.1 1.7-13.6 1-6.2 1.4-12.5 2.1-18.7s1.5-9.5 2.1-14.2a58.1 58.1 0 0 1 2.1-11.2 2.2 2.2 0 0 0 .1-.5c.4-4.2.8-8.3 1.2-12.5a10.2 10.2 0 0 0-.7-2.6zM288.2 848.1a5.1 5.1 0 0 0-1 1.5 19.4 19.4 0 0 0-.6 5.1c.3 3.3-.5 6.5-.8 9.7s-.9 4.9-1.1 7.3a73.4 73.4 0 0 1-3 13.4 12 12 0 0 0 1 9.8l1.3 2.5c1 2.2 1.7 4.6 3.1 6.5 2.6 3.5 4.1 7.9 7.6 10.8a3.8 3.8 0 0 1 .7 1.2 16.3 16.3 0 0 0 4.5 5.9 6.5 6.5 0 0 1 1.4 1.6l4.4 6.6 1.6 2c1.6 2 3.3 3.9 4.8 6a137.5 137.5 0 0 1 7.8 12.1l.6 1c1 1.1 2.1 1.2 2.9 0a10.1 10.1 0 0 0 1.5-3.3c.6-2.4 1-4.9 1.4-7.3s.7-3 .9-4.5c.6-3.6.5-7.3 1.6-10.8a11.2 11.2 0 0 0 0-3.5c-.1-3-.5-6.1-.2-9.1s-.1-5.9-.3-8.8a85.9 85.9 0 0 1-.2-9.3c.1-2.7.9-5.3.2-8a6.7 6.7 0 0 1 .1-1.6c0-2.3.1-4.7.1-7s-.2-2-.2-2.9c.2-3.6.4-7.3.7-10.9s.4-7.7.8-11.6.7-9.7-.5-14.5c-.6-2.5-1.2-2.8-3.6-1.6l-3.5 1.8c-2.2 1.1-4.5.9-6.9.9-4 0-7.7-.5-10.7-3.5l-.8-.5a1.6 1.6 0 0 0-2.5.8c-.2.5-.3 1-.5 1.5-1.2 3.5-2.1 7.2-4.4 10.2a14.2 14.2 0 0 1-2.4 2.5 2.6 2.6 0 0 1-3.4 0zm67-131a2.6 2.6 0 0 0 1.5-2.8q-.3-5.3-.9-10.6a2.3 2.3 0 0 0-2.4-2.4 3 3 0 0 1-1.9-1.5 6.2 6.2 0 0 1-.9-3.1c.1-2.7.4-5.4.7-8.1a14.3 14.3 0 0 1 1-4.7 45.2 45.2 0 0 1 4.2-6.4 7.7 7.7 0 0 1 4.1-2.6 17 17 0 0 0 3-1.1 2.7 2.7 0 0 1 3.1 0c2.5 2 5.6 3.6 6 7.3a1.6 1.6 0 0 0 .3.9c2 2.3 2.7 5.2 3.4 8s2 8 3 11.9a38.4 38.4 0 0 0 1.2 4.7 5.7 5.7 0 0 0 2 2.4 2.2 2.2 0 0 0 2.1 0c1.4-1.4 3.1-2.6 3.5-4.8s1.5-6.2 2.3-9.2a1.7 1.7 0 0 0-1-2.3 12.2 12.2 0 0 1-4.2-4.2 19 19 0 0 1-1.4-2.4c-1.5-3.1-3.3-6.2-4-9.6-1.2-6-.6-11.8.3-17.8A17.6 17.6 0 0 0 375 642a14.5 14.5 0 0 1-3.5-5.4 8.8 8.8 0 0 0-3.9-4.8 8.2 8.2 0 0 1-2-1.6 3.1 3.1 0 0 0-2.5-1l-6.7-.3a19.6 19.6 0 0 0-6.2.5c-2.4.7-4.9 1-7.2 1.7a5.8 5.8 0 0 0-3 2.4 18.2 18.2 0 0 0-2.2 5.8 97.3 97.3 0 0 1-3.4 12.6 94.5 94.5 0 0 1-3.9 10.2c-1.6 3.6-2.9 7.3-4.5 11s-.3 4.1 1 5.9 1.5 2.5 2.3 3.8a7.2 7.2 0 0 0 .8 1.2c3.3 3.5 4.9 8.1 7.4 12.1s2.8 5.4 4.6 7.8a85.7 85.7 0 0 0 6.4 6.7l4.1 4.4zm442.7-508.5c1 3.5 2.2 6.7 2.9 10s.1 5 .5 7.4c.8 5-.9 9.5-2.4 14.1a15.8 15.8 0 0 1-2.9 5.5l-3.2 4c-2.4 3.1-2.5 4.6 1.1 6.9a19 19 0 0 1 7 7.6l2.1 3.9a37.2 37.2 0 0 1 4.6 12.1c.2 1 .2 2 .3 3 .3 3.2.1 6.3-1.7 9.2a15.2 15.2 0 0 0-.8 1.4c-2.3 4.7-1 8.9 3.8 10.5a18.5 18.5 0 0 1 3.7 1.5c2.5 1.4 5.2 1.4 7.9 1.1a13 13 0 0 1 2.3-.2 3.6 3.6 0 0 0 3-1.5c2.3-2.5 4.7-5 7.2-7.2s4.2-2.9 6.3-4.4l8.8-6.5a6.5 6.5 0 0 0 1.4-1.3l6.6-9a13.2 13.2 0 0 0 2.2-7.2 77.2 77.2 0 0 0-.4-8.1 1.1 1.1 0 0 0-1.6-1.1l-2.2.7a43.3 43.3 0 0 1-5.1 1.5c-2.4.4-4.8.5-7.2.7l-7.6.9c-1.7.2-3.2.3-4.4 2s-4.5 1.6-5.4-1a7.6 7.6 0 0 1-.4-1.6c-.2-1.5-.3-3.1-.6-4.6-1-5.4-3.6-9.6-8.8-12.1a11 11 0 0 1-3.7-3c-.8-1 .3-2.2.7-3.2a1.2 1.2 0 0 0 0-.2c.6-3.3 1.3-6.5 1.8-9.8a15.1 15.1 0 0 0-.6-8c-1.4-3.4-2.8-6.9-4.4-10.2s-2.5-3.9-5.1-4.3a20.8 20.8 0 0 1-2.5-.2 2.7 2.7 0 0 0-3.2.7zM657 1104.9v-.3l8.8-.4c1.5-.1 1.8-.5 2.3-2.1a14.7 14.7 0 0 0-1-10.4c-1.4-2.9-3-5.9-6.2-7.3s-7.8-3.4-11.8-4.8a17.7 17.7 0 0 0-5.2-1c-3.9-.2-7.8-.2-11.7-.2s-7.5.4-10.8 2.8c-1.7 1.2-3.8.3-4.8-1.6s-.8-4.8-.2-7.3a2.2 2.2 0 0 1 1.4-1.3c1.7-.3 3.5-.4 5.3-.5s3.1-.3 4.6-.6 2.2-1.2.9-2.6l-1-.9-9.4-7.2a8.4 8.4 0 0 0-1.7-.8 49.2 49.2 0 0 0-6-2.6c-3.3-1-6.7-2.6-10.3-.6a1.4 1.4 0 0 1-1.1.2c-1.9-1-3.8-.3-5.4.3-4.7 1.5-9.4 1.5-14.2 1.5a6.9 6.9 0 0 1-2.9-.8c-1.5-.8-2.9-1.7-4.4-2.6s-3.1-2.1-5.2-1.6a2.1 2.1 0 0 1-.9-.2c-1.8-.4-2.1-.4-2.3 1.4-.4 3.5-.5 7-.6 10.4a3 3 0 0 0 1.1 2.2 28.9 28.9 0 0 0 4.4 2.5l5.5 2.4 4.1 1.8 4.7 2 1.9 1 10.7 6.6.3.3c2.5 2.3 5 4.7 7.6 6.9a50.6 50.6 0 0 0 6.6 5.1 66.6 66.6 0 0 0 8.4 4 26.7 26.7 0 0 0 5.5 1.7c5.3.9 10.5 1.8 15.8 2.5s11.5 1.4 17.2 2.1zm-144.5-55.7h-2l-5.5 1.1c-4.7 1.2-9.4 1.9-14.3 1.2h-.9a26.4 26.4 0 0 1-8.3-.7c-6.1-1.2-12-1.1-17.6 2l-1.5.6c-2.1.7-4.4 1.2-5.9 3.1a5.1 5.1 0 0 1-1 .6l-7.6 5.7a3.7 3.7 0 0 0-.9 1.1c-.6 1-.4 1.7.7 1.9a37.5 37.5 0 0 0 4.3.7l6 .5a1.6 1.6 0 0 1 1.7 1.4 19.6 19.6 0 0 1 .4 5.3c-.5 3.9-3.2 5-6.4 2.8a4.4 4.4 0 0 0-1.4-.7 58.2 58.2 0 0 0-7-1.4c-2.5-.2-5.1 0-7.7-.1-5.1 0-10.1.3-14.7 2.9l-.9.3-7.3 3a7.8 7.8 0 0 0-3.1 2.7 21.9 21.9 0 0 0-3.7 7.4c-.7 2.6-.1 4.2 2.5 5.1 4.8 1.8 9.7 3.3 15 1.9h.7c2.2.9 4.3.3 6.4-.1l16.9-2.9c3.5-.6 7-1.5 10.5-2a16.3 16.3 0 0 0 7.6-3.2c3.8-2.9 7.4-6.1 11-9.3a21.8 21.8 0 0 1 5.3-3.8 28.2 28.2 0 0 0 3.3-2.1c3.4-2.3 6.9-4.5 10.9-5.7a39.9 39.9 0 0 0 4.2-1.9l4-1.8 2.2-.7c3.4-1.3 4.6-2.8 4.5-6.4s-.3-5.4-.5-8.5zm-23-783.3a11.1 11.1 0 0 0-2.5 1.8c-3.2 4.1-6.3 8.2-9.3 12.4s-5.7 7.4-8.7 10.9a101.8 101.8 0 0 0-6.7 8c-2.7 3.8-6 7.3-9 10.9a6.3 6.3 0 0 0-1.5 4.1 17.2 17.2 0 0 0 3.5 11.5c3.1 4.2 3.6 3.5 7.6 1.7l1-.6 7.4-5.7c2.1-1.6 4.2-3.2 6.2-5s4.9-4.5 7.3-6.9c.9-.9 1.5-2 2.4-2.8a5.2 5.2 0 0 0 1.7-3.9 19.6 19.6 0 0 1 2.1-8.3 2.5 2.5 0 0 0 0-2.6c-.7-1.4-1.3-3-2.1-4.4s-1.3-5.7-.7-8.6 1.2-4.6 1.8-7a7 7 0 0 0-.6-5.5zm77.8 232.2a12.4 12.4 0 0 0 10.4-3.7 1.9 1.9 0 0 0 .4-2.5 15.9 15.9 0 0 1-1.2-3.2 30.8 30.8 0 0 1-.6-4.1c-.3-2.6-.9-3.3-3.6-3.6l-6.4-.7c-3.6-.5-7.2-1.2-10.8-1.5s-6.4-.1-9.6-.1a82.1 82.1 0 0 0-14.9.9 15.7 15.7 0 0 1-5 .1c-3.7-.6-5 .4-5.9 4.2-.3 1.4-.7 2.7-1 4.1s.8 5.2 2.1 5.8 4 2 6.1 2.1c5.4.4 10.9.5 16.3.5s9.8-.3 14.7-.4a3.9 3.9 0 0 1 3.8 1.8 2.1 2.1 0 0 0 2.8.8 14 14 0 0 1 2.4-.5zm37.2-242.3a5 5 0 0 0-.2 1c.1 1.5.2 2.9.2 4.4v10.6c0 2.4-.2 2.8-.3 4.2a13.8 13.8 0 0 0-.4 2c.2 3.2-.7 6.3-.9 9.4a20.1 20.1 0 0 0-.2 3.2c.2 2.5.6 5 .8 7.5a16.7 16.7 0 0 1-.1 2.8l-.3 3a2.1 2.1 0 0 0 1.7 2.4l1.8.4a8.8 8.8 0 0 1 5.5 3.3c2.4 3.5 5.4 6.6 7.3 10.5 1.1 2.2 2.5 2.2 4.1.4s3.5-3.8 5.3-5.6 1.5-1.9.6-3.6c-2.3-4.6-4.6-9.3-6.9-13.9-.9-2-1.7-4-2.6-6s-3.2-6.7-4.5-10.2c-2-5.5-3.8-11.2-5.6-16.8-.3-.8-.3-1.7-.5-2.5l-1.7-6.6h-3.3zm-39.6 767.8l-1.8 8.7a2.5 2.5 0 0 0 0 .7c.2 2 .3 4 .6 6a4 4 0 0 0 .9 2.3 29.6 29.6 0 0 0 4.3 3.2c1.7 1.1 3.5 2 5.3 2.9a7.2 7.2 0 0 0 4.4 1.1 13.9 13.9 0 0 1 4.1 0 5.1 5.1 0 0 0 2.7-.3 22.1 22.1 0 0 1 4-.9c1.8-.3 3.7-.2 5.5-.7 4.2-1 8.4-.7 12.7-.6 1.9.1 2.4-.2 2.6-2a31.3 31.3 0 0 0-1.7-12.8 3.3 3.3 0 0 0-1.5-2c-2.6-1-5.3-2.2-8.2-1a27.3 27.3 0 0 1-8.2 1.7l-6.2.5h-2.7c-1.8-.1-3.7-.4-5.5-.5a9.5 9.5 0 0 1-6-2.3l-2.4-2.2zm-98.9 14.1v2.1c0 .7.7 2.3 2.5 2.1a55.7 55.7 0 0 1 6-.2c2.9.1 5.7.2 8.6.5s4.3.7 6.4 1c5.3.9 10.6 1.4 15.5-1.7 2.1-1.3 4.2-2.6 6.2-4.1a3.9 3.9 0 0 0 1.3-2.3c.3-2.2.5-4.5.7-6.7s-1.8-4.7-4.9-3.8a77.7 77.7 0 0 1-8.7 2.4 47.4 47.4 0 0 1-7.9.5 42.6 42.6 0 0 1-5.6-.4 20.2 20.2 0 0 1-4.8-.9c-2.8-1.1-5.8-1.1-8.6-1.7a7.2 7.2 0 0 0-2.5.2 2.9 2.9 0 0 0-2.3 2 33.9 33.9 0 0 0-1.9 11zm67.1-768.1a19 19 0 0 1-3.8-.9c-2.6-1.2-5-2.7-7.6-4l-6.5-3.1c-1.3-.6-2.8-.9-4.2-1.4-3.4-1.2-6.8-2.3-10.4-2.1-1.7.1-3.6.5-4.4 2.2a16 16 0 0 0-1.7 5.5c-.3 3.2 0 6.5-.1 9.8a14.4 14.4 0 0 0 1 5.2 5.1 5.1 0 0 0 6 3.5l2.5-.5a51.5 51.5 0 0 0 12.4-2.8c3.8-1.5 7.6-3.2 11.3-5a14.6 14.6 0 0 0 3.3-2.2 5.3 5.3 0 0 0 2.2-4.2zm-39.4 230.7l6.3-.4c2.8-.2 5.7-1 8.5-.3a11.6 11.6 0 0 0 2.1 0 2.2 2.2 0 0 0 2.5-1.9 32.2 32.2 0 0 0 .5-6c-.2-3.5-.6-6.9-.9-10.4a1.2 1.2 0 0 0-1.3-1.3H510c-3.3-.3-6.5 1.3-9.9.7-1.3-.2-2.3.9-2.7 2.2s-1 3.6-1.6 5.3a5.7 5.7 0 0 1-1 1.8 13 13 0 0 1-5.4 3.6 3.7 3.7 0 0 1-2.5.3c-3.6-1.5-6.9-3.3-8-7.5-.2-.8-.3-1.5-.5-2.3a2.6 2.6 0 0 0-4-1.6l-2.9 1.5a2.3 2.3 0 0 0-1.5 2.5c.2 2.2.4 4.5.5 6.7s.6 2.4 2.3 2.6a9.3 9.3 0 0 1 2.3 1c1.7.8 3.3 1.9 5.1 2.2 4.5.8 8.9 1.9 13.5 1.3zm26.1 12.4h-.2v7.9a2.9 2.9 0 0 0 .4 1.9c1.8 1.3 3.2 3.3 5.7 3.3l9.4.4a29.8 29.8 0 0 0 4.9-.4c2.8-.4 5.6-1.3 8.4-1.4s5.9-3.4 6.5-6.1a81.4 81.4 0 0 0 1-8.3c.3-3.1-.7-5.9-1.3-8.9a1.7 1.7 0 0 0-1.8-1.3l-3-.3c-2.5-.1-5-.7-7.6-.2a33.3 33.3 0 0 1-6.2.5 103.9 103.9 0 0 0-13.9 1 2.1 2.1 0 0 0-2.1 1.8 11.4 11.4 0 0 0-.3 2.1v8.1zm170.1-162.8h.7a6.3 6.3 0 0 0 .6-.9l2.2-5.6 1.9-4.5c.7-1.8 1.4-3.6 2.3-5.3 2-3.8 4.1-7.5 6.1-11.2a5.8 5.8 0 0 0 .1-5.6c-.7-1.3-1.4-2.6-2-3.9s-1.4-3.9-2.2-5.9-4-5.3-5.9-6a8 8 0 0 1-3.8-2.9 5.8 5.8 0 0 0-3.1-2.6 7.8 7.8 0 0 0-.3 1.9c.3 2.7-.5 5.6.7 8.2a3.1 3.1 0 0 1 0 2.1c-1 2.8 0 5.7-.1 8.5a87.2 87.2 0 0 0 .7 10.6 14.8 14.8 0 0 0 .7 3.1c.5 1.5 1 2.9.4 4.5a5.6 5.6 0 0 0 0 2.5c.4 2.5.9 5 1.2 7.5a22 22 0 0 1-.1 3.4c-.1.9-.1 1.5-.1 2.1zM511.2 507.6h-1.6c-4.3.2-8.7.4-13 .4s-9.2-.2-13.7-.4a30.7 30.7 0 0 1-6.2-1.1c-1.5-.4-2.9-1.3-4.4-1.9s-2.4-.2-2.8 1.6a8.2 8.2 0 0 0-.2 2.3c.1 2 .3 4 .5 6a2.4 2.4 0 0 0 .4 1.3 2.9 2.9 0 0 0 1.6 1.1c3.7.3 7.4.5 11.2.6s9.1.4 13.7.7a104.9 104.9 0 0 0 12.8-.4c1.7-.1 2.3-.8 2.3-2.6s-.4-4.9-.6-7.6zM575.3 260c-2.3.4-5.5.8-8.6 1.5s-4.4 1.5-6.6 2.2-2.1 1-1.7 2.8a3.4 3.4 0 0 0 2 2.6 27.9 27.9 0 0 1 6.6 3.8 26.6 26.6 0 0 0 14.3 6.7 3.2 3.2 0 0 0 3.4-1.4c2.3-2.9 2.1-6.2 2.2-9.5.1-1.5 0-2.9.1-4.4s-.2-3.3-2.7-3.6-5.4-.6-8.9-.8zM361.8 705.8c-.1 1.5-.3 2.8-.4 4.1a11.7 11.7 0 0 0 3 9 1.6 1.6 0 0 0 1 .6l5.5.2a2.3 2.3 0 0 0 2.5-2.2 6.6 6.6 0 0 0 0-1.9c-.4-3.2.7-6.5-.1-9.7a.7.7 0 0 1 0-.2c.5-3.1-.4-6.1-1-9.1a24.7 24.7 0 0 0-.8-3.3 4 4 0 0 0-1.2-1.9 7.6 7.6 0 0 1-2.2-3 26.9 26.9 0 0 0-2.6-4.4c-.4-.6-1.7-1.3-2.1-1.1s-3.1 1.6-3.5 2.8a13.2 13.2 0 0 0-.3 6.6c1.2 4.7 1.6 9.2 2.2 13.5zm-4.4-97.7a11.1 11.1 0 0 0-6.8 1.9 84.9 84.9 0 0 0-11.7 10.6 5.4 5.4 0 0 0-1.2 2.4 2.7 2.7 0 0 0 .5 2.1c.2.3 1.3 0 1.9-.3s2.9-1.4 4.5-2 4.6-1.3 6.9-2l1.1-.2c3.5.2 7.1-1.4 10.6-.2 2.3-.6 4.6 0 6.9.5a1.7 1.7 0 0 0 1.9-.9c1.8-2.7 1.2-5-1.7-6.6s-4.8-2.5-7.2-3.8a13.7 13.7 0 0 0-5.7-1.5zm438-306.3a6.1 6.1 0 0 0-1 2c0 2.8.4 5.7 2.4 7.8a41 41 0 0 0 10.4 8.4 14.7 14.7 0 0 0 9.3 2c3.8-.6 5.4-1.5 5.7-5.2s-.3-2.8-2.6-2.7a35.7 35.7 0 0 1-6.7 0c-2.1-.3-4.2-.4-5.6-2.3a2.1 2.1 0 0 0-.8-.5 25.3 25.3 0 0 1-7.6-5.9zm-222.6-47.4h1.9l10.8-1.5c3.2-.5 6.3-.6 9.1 1.2a8.1 8.1 0 0 0 3.8-5.8 19.4 19.4 0 0 0-.4-4.1c-.2-1.7-.7-2.3-2.4-1.9a18.2 18.2 0 0 0-5.8 2.2c-4.4 2.9-9.4 4.5-14 6.8-1.2.6-2.5 1.1-3 3.1zm-99.1 199.4h-.6a10 10 0 0 0-.7 2 49 49 0 0 1-.6 6.2 40.7 40.7 0 0 0-.7 12.5c.1 2.3.8 2.6 2.7 1.5s2.6-1.7 3.9-1.9a2.6 2.6 0 0 0 2.4-2.3 7.4 7.4 0 0 0-.4-4.8c-1.2-2.7-2.2-5.5-3.4-8.2s-1.7-3.3-2.6-5zM391.8 586a18.7 18.7 0 0 0 2.1-3.1 42.1 42.1 0 0 0 2.5-9.4c.2-1.8.7-3.5.9-5.2s-.9-2.4-1.9-3.2-1.8-1.8-3.6-1.1c-.6 2.5-1.5 5.2-1.9 7.9s0 4.2-.3 6.3a11.8 11.8 0 0 0 .7 5.4 14.8 14.8 0 0 0 1.5 2.4zM360 764.4c2.6 1.5 4.6 3.2 7.5 2.6a21.5 21.5 0 0 1 3.7-.1h4.6c2.8-.2 4.4-2.2 5.9-4.2a4.4 4.4 0 0 0-4-2.2h-6.9c-3.9-.4-7.2 1.3-10.8 3.9zm204.4-250.3l5.7-.8a2.2 2.2 0 0 0 2.1-2.4 34.3 34.3 0 0 0-.7-5.3 1.5 1.5 0 0 0-2.1-1.3c-1.5.6-2.7 0-4-.3a4.2 4.2 0 0 0-5.6 4.4 17.5 17.5 0 0 0 .3 2.8c.6 2.4 1.1 2.9 4.3 2.9zm-19-244.5a2.6 2.6 0 0 0 2.5-1.3 24 24 0 0 0 2.2-3.5 2.2 2.2 0 0 0-.1-1.9 8.2 8.2 0 0 0-3.5-2.9c-2.1-.9-4.4-.8-6.6-1.2s-4.1 1.8-3.9 3.9a1.7 1.7 0 0 0 1.1 1.2c1.4.1 2.2 1 3 1.9a19.3 19.3 0 0 0 2.8 2.7 12 12 0 0 0 2.6 1.1zM673 566c-3.1 1.8-3.2 4.3-2.9 7s.6 5.4 1 8 .6 4 1 6a2.2 2.2 0 0 0 1.1 1.5 3.6 3.6 0 0 0 1.9-.9 1.4 1.4 0 0 0 .5-1c0-2.6 0-5.1-.2-7.7s-.6-3.8-.8-5.7-.5-3.5-.8-5.3a10.9 10.9 0 0 0-.8-1.9zM569.5 295.2l2.8-2a21.2 21.2 0 0 0 2.5-2c2-2 1.9-3.2-.5-4.5s-5.5-2.8-8.3-4.2c-.7-.4-1.4-.7-2.1-.1a1.7 1.7 0 0 0-.3 2.1 3.4 3.4 0 0 0 .4 1.1c1.7 1.9 2.1 4.4 3.2 6.6a22.9 22.9 0 0 0 2.3 3zm20.3 189.4a3 3 0 0 0-1.3-3.1 23.6 23.6 0 0 0-5-1.9 2.4 2.4 0 0 0-2 .8c-2.5 3.5-.8 8.8 1.9 10.4a3 3 0 0 0 2.2.3 7.1 7.1 0 0 0 4.2-6.5zM699 342.2l.7.2 2.7-3.1 4.1-4.4a7.8 7.8 0 0 0 1.7-2.4c.6-1.7.9-3.5 2.2-4.8a1.7 1.7 0 0 0 .3-.9 2.1 2.1 0 0 0-1.2-2.5c-1.1-.4-1.6.3-2.1 1a20 20 0 0 1-1.5 2.4c-3.3 3.7-4.7 8.5-6.9 12.9a3.9 3.9 0 0 0 0 1.6zM584.5 513h-.4c-.2-3.5-.3-7-.5-10.4a2.2 2.2 0 0 0-1.9-2.3c-1-.1-1.8.7-2 2.1s0 4.8-.7 7.1.6 4.2 1 6.3a2 2 0 0 0 1.5 1.2 2.2 2.2 0 0 0 1.6-1 19.2 19.2 0 0 0 1.4-3zm4.1-20.4c2.3 2.7 4.1 3.7 7 3.8a1.3 1.3 0 0 0 1.6-1.3c0-2.6 0-5.3-.2-7.9a3.1 3.1 0 0 0-2.4-2.6c-1.5 0-1.8 1.3-2.1 2.4a8.6 8.6 0 0 1-2.7 4.3 14 14 0 0 0-1.2 1.4zm-28.1 579.8c-.8 1.8-.1 2.8 1.3 3.6l1.4.8 10.5 4.9 1.7.5c.5-3.1-.4-4.7-2.8-5.7s-5.3-2.2-7.9-3.5a6.5 6.5 0 0 0-4.2-.5zm-60 5.7l2.1-.8 9.9-4.6 2-1.1c1.6-1.1 1.7-1.5.9-3.5a6.9 6.9 0 0 0-4.2.7c-2.4 1.2-4.9 2.3-7.4 3.3s-3.4 2.4-3.3 6.1zM299.2 802.9a6.2 6.2 0 0 0-.7-1.9 16.9 16.9 0 0 0-2.6-2.7c-1.1-.9-1.9-.6-2.5.7l-1.9 4.7a1.3 1.3 0 0 0 .4 1.8 51 51 0 0 0 4.9 2.1 1.3 1.3 0 0 0 1.9-1.2c.2-.9.3-1.9.5-3.5zM591 507.8c.1.4.4 1.4.7 2.3a1.8 1.8 0 0 0 2 1.3 11.5 11.5 0 0 0 2.5-.5 2.4 2.4 0 0 0 1.8-2.9l-.3-3c-.1-1-.6-1.8-2-1.3a14.5 14.5 0 0 1-2.2.7c-2 .3-2.5.8-2.5 3.4zm3.5-42.9l-1.7 2.3c-2.1 2.4-2.6 4.8-.2 7.4a11.5 11.5 0 0 1 1.3 2.5c2.5-1.1 3.5-3.1 2.6-5.4s-1.5-3.7-1.3-5.8a3.2 3.2 0 0 0-.7-1zM294.4 840.7a42.9 42.9 0 0 0 3.2-8.9 1.7 1.7 0 0 0-.4-1.2 2.6 2.6 0 0 0-2.7-1 2.3 2.3 0 0 0-1.6 2.1 16.1 16.1 0 0 0 .3 7.6 6.8 6.8 0 0 0 1.2 1.4zm190.1-360.6a4.5 4.5 0 0 0 4 4.6 2.5 2.5 0 0 0 2.4-1 2 2 0 0 0 0-2.6l-1.8-2.7c-.9-1.3-1.8-1.6-3-1.2a2.7 2.7 0 0 0-1.6 2.9zM299.2 818.7a2.4 2.4 0 0 0-1.8-2.7l-3.8-1.1c-1-.3-1.8-.5-2.5.5s-.1 1.7.4 2.4a6.1 6.1 0 0 0 1.3 1.2l2.3 1.6c.8.6 1.5 1.2 2.5.5a2.8 2.8 0 0 0 1.6-2.4zm211.4-524.4l-.4.2a4.8 4.8 0 0 0 1.3 1.7c.3.2 1.2-.4 1.6-.9a14.7 14.7 0 0 0 1.4-1.8c1.1-1.4 2.3-2.7 3.3-4.2a3.6 3.6 0 0 0 .3-1.5l-1.5-.2-.4.2a7.8 7.8 0 0 1-3.9 1.3c-1.4.1-2 1.3-1.9 2.7s.1 1.7.2 2.5zM370.5 731.1c.1-1-.2-2-1.2-2.3a2.5 2.5 0 0 0-2 .7 6.8 6.8 0 0 1-3.3 2 1.5 1.5 0 0 0-.9 1.1 2 2 0 0 0 1 1.3 5.5 5.5 0 0 0 2.2.5c2.5.2 4.2-1.3 4.2-3.3zm-35.9-19.9c-1.3.8-1.7 1.6-1.1 2.7a3.8 3.8 0 0 0 3.2 2 1.7 1.7 0 0 0 1.3-.6 1.5 1.5 0 0 0-.2-1.4c-1-.9-2.1-1.7-3.2-2.6z"/><path d="M499.9 183.2a49.4 49.4 0 0 0 .4-5.8 62.3 62.3 0 0 1 .6-9.9c.2-1.9.5-3.8-.9-5.6s-.6-2.6.8-3.9a22.7 22.7 0 0 1 3.7-2.8 3 3 0 0 1 2-.3 12.9 12.9 0 0 1 4 1.2c4 2.4 8.4 2.6 12.8 3.1a45.2 45.2 0 0 0 13.1-.9 28 28 0 0 1 4.1-.5 5.9 5.9 0 0 1 2.3.4 1.7 1.7 0 0 1 1 2.4c-.6 1.2-1.2 2.6-2.6 3.1a8.9 8.9 0 0 0-4.8 4.1c-3.3 5.1-6.6 10.1-9.8 15.3a24.7 24.7 0 0 1-8.7 8.9c-3.4 1.9-7.3 3.3-11.4 2-2.3-.7-3.7-2.5-4.8-4.5a10.6 10.6 0 0 1-1.8-6.3zm8.1-6.5a25.5 25.5 0 0 0 0 4.5c.6 3.2 2 4.6 5.5 4.7s6.6-2.4 9-5.1a1.6 1.6 0 0 0-1.1-2.5 18.8 18.8 0 0 0-2.1-.1c-3.5-.3-7.2-.1-11.2-1.5zm18.9-9.2a6.1 6.1 0 0 0-1.5-.4c-4.6.1-9.3.5-13.8-.7a1 1 0 0 0-1.4 1.1c-.1 1.2.2 1.7 1.6 2.1 4.2 1 8.4.8 12.7.7a2.5 2.5 0 0 0 1.5-.9 9.4 9.4 0 0 0 1-1.9zm22.8-86a5.9 5.9 0 0 1 3.8-4.3c3.5-1.6 7.1-2.8 10.6-4.1a8.5 8.5 0 0 1 5.5.1l2.2.7a3.6 3.6 0 0 1 2.9 3.2c.6 2.8 1.1 5.6 1.4 8.5s-.4 5.3-3.1 6.7-3.5.6-4-1.9-1.4-6.3-3.8-8.9a7.2 7.2 0 0 0-8.1-1.8l-4 1.9a2.9 2.9 0 0 1-3.4-.1zm-51.4 123.4a3.2 3.2 0 0 1 1.6 3.6 3.5 3.5 0 0 0 1.7 3.9c2.5 1.4 5 2.9 8 2.8s4.4-1.4 6.5-2.2 2.2-1.1 3.3-1.7a2.3 2.3 0 0 1 2.6.2c.9.8.5 1.7.3 2.6a4 4 0 0 1-2.8 3.1c-3.2 1-6.2 2.3-9.4 3.3a14.1 14.1 0 0 1-7.8-.3 16.2 16.2 0 0 1-7.9-4.7 6.1 6.1 0 0 1 .9-8.6zm107.2-37.1l-2.7 3.6c-1.6-1.3-1.8-1.9-1.2-3.2a20.3 20.3 0 0 1 2.1-3.8c1.6-2.1 4.1-2.9 6.7-3.3s2.6 1.1 3.1 2.4 1 5.2-.8 7.5a6.3 6.3 0 0 1-2.3 1.8c-1.4.6-2.5-.1-3-1.6s-.6-2.2-1.9-3.4zm-53-54.6l4.8.9c1.7.4 2.6 1.2 2.6 2.2a4.3 4.3 0 0 1-2.6 3c-3.3 1-6.4.1-9.4-1.3a1.4 1.4 0 0 1-.4-2.6c1.4-1.1 2.8-2.5 5-2.2zm9.2 43.7c-.1.3-.2.8-.4 1.2-.9 2.3-1.7 4.6-2.7 6.9s-2.5 2.5-4.1 3.2-1.2-.2-1.1-1 .4-.9.4-1.3a49.3 49.3 0 0 0 .7-5.2c.1-2 .6-3.5 2.7-4.1a22.1 22.1 0 0 0 2.4-1.4c1.4-.5 2.2.2 2.1 1.7zm6.1 8.9a3.4 3.4 0 0 1 2.4-4 11.9 11.9 0 0 0 2.1-1.4 1.9 1.9 0 0 1 2.4 0 1.7 1.7 0 0 1 .3 2.1c-.9 2.6-2.9 4.3-5 5.9s-2 .2-2.2-1a9.9 9.9 0 0 1 0-1.6zm21.6 487.7a23 23 0 0 0-2.6-.9 10.2 10.2 0 0 0-3.6-.5c-3 .5-6 1.3-9.1 1.8a56.1 56.1 0 0 1-6.9.7 5.3 5.3 0 0 1-2.6-.8c-1.7-.9-2.1-2.1-1.3-3.9s.9-2 1.4-2.9a3.7 3.7 0 0 1 4.7-1.7c5.9 2.5 12 2.4 18.2 1.3l3.2-.5a3.1 3.1 0 0 1 3.1 1.1 2.6 2.6 0 0 1-.2 2.9c-.9 1.5-1.9 3-4.3 3.4zm-3.5-25.2c0 2.1-1.1 3.7-3.7 4.5s-3.6.8-5.4 1.3l-8.1 2.2a3.7 3.7 0 0 0-1.4 1.2c-.4.5-.7 1-1.1 1.5a3.1 3.1 0 0 1-3.4.6c-1.2-.5-1.3-1.4-1.3-2.5a8 8 0 0 1 5.5-7.4 24.7 24.7 0 0 1 4.7-1.1 20.3 20.3 0 0 0 6.5-2.5l2.5-1.3c3.9-1.6 5 .6 5.2 3.5zm-110 32.2a29.1 29.1 0 0 1 1.2-3.2c.8-1.5 1.6-1.9 3.3-1.3a57.7 57.7 0 0 1 6.6 2.8c3 1.5 5.8 3.1 8.8 4.7s2.8 2.4 2.1 4.7a3.7 3.7 0 0 1-4.4 2.4 27.9 27.9 0 0 1-5.8-2.2c-3.3-1.6-6.4-3.5-9.6-5.1s-2-.8-2.2-2.8zm331.6-502c0-5.3-.2-10.6.1-15.9a29.7 29.7 0 0 1 2.8-11.2v-.2c2-2.2 2.9-4.9 4.2-7.4 2.4-5.1 5.8-9.5 9-14.1.4-.6.9-1 1.4-1.6a67.1 67.1 0 0 0 4.1-5.3 18.7 18.7 0 0 1 6.3-6.1l2.7-1.8c5-3.5 10.1-6.4 16.5-5.7 2.5.3 5 .1 7.4.4a48.1 48.1 0 0 1 17.5 5.2l3.2 1.5a15.2 15.2 0 0 1 5 4.1c3.4 4.5 6.5 9.3 8.4 14.7a6.9 6.9 0 0 1 .3.9c.9 4.4 2.2 8.8 2.6 13.2s1.5 6.9 1.3 10.5 0 5.2-.6 7.6-.4 7.6-.8 11.4a15.3 15.3 0 0 1-.5 3.7 38.8 38.8 0 0 0-1.7 8.2 8.7 8.7 0 0 1-.4 1.6l-3.2 8.9a52.4 52.4 0 0 1-5.4 11.8c-1.6 2.4-3.8 4.4-5.8 6.6l-1.8 2.1a8.1 8.1 0 0 1-1.1 1.2 71.5 71.5 0 0 1-11.1 7.6l-8.2 4.5a20.3 20.3 0 0 1-10.6 2.8 74.4 74.4 0 0 1-9.9-1.4 17.4 17.4 0 0 1-3.8-1.8l-8.2-3.9a7.3 7.3 0 0 1-3.6-3.2 6.6 6.6 0 0 0-1.8-2.1c-1.7-1.3-2.7-3.2-3.7-5s-3.7-6.1-5.3-9.3-2.4-5.9-3.5-8.9a34.2 34.2 0 0 1-1.8-13.5c.1-3.3 0-6.7 0-10zm62.7 38.1h-1.5a33.9 33.9 0 0 1-4.9 1.3c-4.8.5-9.6.8-14.4 1a14.8 14.8 0 0 1-12.7-6.2c-4.1-5.7-7.8-11.8-8.5-19.1-.3-3.5-.8-6.9-1-10.4-.1-1.3.3-2.6.3-3.9v-16.6a23.1 23.1 0 0 1 .5-4.9c1.4-6.1 3.3-11.9 7.4-16.9 1.1-1.3 2-2.8 3.1-4 2.5-2.8 5.1-5.4 7.6-8.1a4.1 4.1 0 0 1 .8-.4c3.2-2 4.9-5.1 5.9-8.6a4.4 4.4 0 0 0 0-1.6c-.1-1.5-.7-2-2.2-2.1a8.5 8.5 0 0 0-7.1 2.8c-3.7 3.6-7.3 7.3-11 11.1-6 6.2-10.7 13.2-12.7 21.8-.5 2.2-1.7 4.3-2.2 6.6a56.9 56.9 0 0 0-1.6 8.2c-.2 2 .3 4 .2 6s-.5 5.3-.6 8c-.2 4.7-.6 9.3.2 13.9a22.7 22.7 0 0 0 3 8.7 30.6 30.6 0 0 1 3 5.2 26.4 26.4 0 0 0 7.4 10.8 22 22 0 0 0 7.9 4.7 55.7 55.7 0 0 0 14.2 2.1c3.1 0 5.9-.3 8.2-2.4a9.8 9.8 0 0 1 2-1.2l5.6-2.9c1.2-.7 2.5-1.3 3.1-3zm-496.3 292c0 2.2-2.3 5.4-4.1 6.1a2.1 2.1 0 0 1-1.6-.4 36.1 36.1 0 0 0-14.3-6.9 7 7 0 0 0-1.8 0c-2.5 0-4.8-.5-6.3-2.7s-.8-1.9.1-3.1a17.5 17.5 0 0 0 1.6-2.5c1-1.8 2.3-2.5 4.2-1.7a14.6 14.6 0 0 0 5.7 1 10.2 10.2 0 0 1 5.5 1.7c1.6 1.1 3.4 1.8 5.1 2.7a37.9 37.9 0 0 1 4 2.4 5 5 0 0 1 1.9 3.4zm-13.2 12.5a9.8 9.8 0 0 1 5.9 1.5c1.9 1.3 4.2.8 6.3 1.4a30.8 30.8 0 0 1 3.6.9 3.4 3.4 0 0 1 1.5 4.7c-1.3 2.3-2.8 2.9-5.4 2.1a93.8 93.8 0 0 0-9.2-2.5 20 20 0 0 0-8.8.2l-1.3.4a2.2 2.2 0 0 1-2.5-.9 2 2 0 0 1 .1-2.4c2.2-3.8 5.3-5.8 9.8-5.4zm186.7-177.6c.2-2.2.6-4.2 2.1-5.9s2.6-1.6 3.6-1a2.9 2.9 0 0 1 1.6 2.9 9.4 9.4 0 0 1-.7 2.9 33.3 33.3 0 0 1-2.1 4.1 4.7 4.7 0 0 1-1.6 1.6 1.2 1.2 0 0 1-2-.8c-.4-1.2-.6-2.5-.9-3.8zm-8.7 57.5c-.3-2.6 1.7-4 3.2-5.6s3.6-.5 4.3.5a2.7 2.7 0 0 1 .3 2.1 35.5 35.5 0 0 1-1.7 4.2c-.6 1.4-3.1 2.6-4.5 2s-1.7-1.8-1.6-3.2zm1.1 72.2a9 9 0 0 1 .6-1.6l2.4-3.9a2.3 2.3 0 0 1 3.1-.8c1.4.7 2.1 2 1.5 3.2a24.1 24.1 0 0 1-2.5 4.2 5 5 0 0 1-2.2 1.5c-2.1.7-2.9 0-2.9-2.6zm-1.9 50.9a34.7 34.7 0 0 1 5 .8 13.6 13.6 0 0 1 3.3 2c.4.3.7.8 1.1 1.2a5.6 5.6 0 0 1 2.1 6.2 13.9 13.9 0 0 1-3.1 6.4c-2.2 2.4-5 2.5-7.9 2.2a40.7 40.7 0 0 1-5-.8 44.3 44.3 0 0 1-5.3-1.6 2.2 2.2 0 0 1-1.3-1.3c-.6-2.3-1.7-4.6-1.2-7a5.9 5.9 0 0 1 1.4-2.5c.9-1 2.1-1.8 3.2-2.7s4.6-3.3 7.7-2.9zm2.4 12c2.5 0 2.9-.2 3.1-1.5s-.2-2.5-2.1-3a30.2 30.2 0 0 0-4.6-.8c-2-.2-2.6.3-2.9 1.6s.4 2.1 1.9 2.8l.6.3z"/></svg>